<?xml version="1.0" encoding="UTF-8"?>
<svg width="59px" height="33px" viewBox="0 0 59 33" version="1.1" xmlns="http://www.w3.org/2000/svg" xmlns:xlink="http://www.w3.org/1999/xlink">
    <!-- Generator: Sketch 52.4 (67378) - http://www.bohemiancoding.com/sketch -->
    <title>product-list-blue</title>
    <desc>Created with Sketch.</desc>
    <g id="Page-1" stroke="none" stroke-width="1" fill="none" fill-rule="evenodd">
        <g id="Icons" transform="translate(-428.000000, -270.000000)">
            <rect id="Rectangle" fill="#386689" x="434" y="291" width="13" height="2" rx="1"></rect>
            <rect id="Rectangle" fill="#577E9C" x="451" y="291" width="13" height="2" rx="1"></rect>
            <rect id="Rectangle" fill="#577E9C" x="468" y="291" width="13" height="2" rx="1"></rect>
            <rect id="Rectangle" fill="#386689" x="434" y="295" width="8" height="2" rx="1"></rect>
            <rect id="Rectangle" fill="#577E9C" x="451" y="295" width="8" height="2" rx="1"></rect>
            <rect id="Rectangle" fill="#577E9C" x="468" y="295" width="8" height="2" rx="1"></rect>
            <rect id="Rectangle-17" fill="#577E9C" x="434" y="276" width="13" height="12" rx="2"></rect>
            <rect id="Rectangle-17" fill="#386689" x="468" y="276" width="13" height="12" rx="2"></rect>
            <rect id="Rectangle-17" fill="#386689" x="451" y="276" width="13" height="12" rx="2"></rect>
            <path d="M459.007914,282.057943 L459.9951,279.415741 C460.088354,279.166148 460.332078,279 460.604954,279 L461.675538,279 C461.854734,279 462,279.141384 462,279.315789 C462,279.490195 461.854734,279.631579 461.675538,279.631579 L461.059477,279.631579 C460.786601,279.631579 460.542877,279.797727 460.449624,280.04732 L459.462438,282.689522 C459.369184,282.939115 459.12546,283.105263 458.852584,283.105263 L455.103255,283.105263 C454.95997,283.105263 454.83365,283.013789 454.792477,282.880215 L454.013769,280.353899 C453.962278,280.186849 454.059676,280.010802 454.231314,279.960686 C454.26156,279.951855 454.292969,279.947368 454.324547,279.947368 L458.64376,279.947368 C458.822955,279.947368 458.968221,280.088752 458.968221,280.263158 C458.968221,280.293892 458.963611,280.324461 458.954537,280.353899 L458.484263,281.879585 C458.439246,282.02563 458.521146,282.180516 458.667191,282.225533 C458.807224,282.268696 458.956628,282.19521 459.007914,282.057943 Z M455.672999,285 C455.225011,285 454.861845,284.646541 454.861845,284.210526 C454.861845,283.774512 455.225011,283.421053 455.672999,283.421053 C456.120987,283.421053 456.484153,283.774512 456.484153,284.210526 C456.484153,284.646541 456.120987,285 455.672999,285 Z M458.268692,285 C457.820704,285 457.457538,284.646541 457.457538,284.210526 C457.457538,283.774512 457.820704,283.421053 458.268692,283.421053 C458.71668,283.421053 459.079846,283.774512 459.079846,284.210526 C459.079846,284.646541 458.71668,285 458.268692,285 Z" id="Combined-Shape" fill="#577E9C"></path>
            <path d="M476.007914,282.057943 L476.9951,279.415741 C477.088354,279.166148 477.332078,279 477.604954,279 L478.675538,279 C478.854734,279 479,279.141384 479,279.315789 C479,279.490195 478.854734,279.631579 478.675538,279.631579 L478.059477,279.631579 C477.786601,279.631579 477.542877,279.797727 477.449624,280.04732 L476.462438,282.689522 C476.369184,282.939115 476.12546,283.105263 475.852584,283.105263 L472.103255,283.105263 C471.95997,283.105263 471.83365,283.013789 471.792477,282.880215 L471.013769,280.353899 C470.962278,280.186849 471.059676,280.010802 471.231314,279.960686 C471.26156,279.951855 471.292969,279.947368 471.324547,279.947368 L475.64376,279.947368 C475.822955,279.947368 475.968221,280.088752 475.968221,280.263158 C475.968221,280.293892 475.963611,280.324461 475.954537,280.353899 L475.484263,281.879585 C475.439246,282.02563 475.521146,282.180516 475.667191,282.225533 C475.807224,282.268696 475.956628,282.19521 476.007914,282.057943 Z M472.672999,285 C472.225011,285 471.861845,284.646541 471.861845,284.210526 C471.861845,283.774512 472.225011,283.421053 472.672999,283.421053 C473.120987,283.421053 473.484153,283.774512 473.484153,284.210526 C473.484153,284.646541 473.120987,285 472.672999,285 Z M475.268692,285 C474.820704,285 474.457538,284.646541 474.457538,284.210526 C474.457538,283.774512 474.820704,283.421053 475.268692,283.421053 C475.71668,283.421053 476.079846,283.774512 476.079846,284.210526 C476.079846,284.646541 475.71668,285 475.268692,285 Z" id="Combined-Shape" fill="#577E9C"></path>
            <path d="M442.007914,282.057943 L442.9951,279.415741 C443.088354,279.166148 443.332078,279 443.604954,279 L444.675538,279 C444.854734,279 445,279.141384 445,279.315789 C445,279.490195 444.854734,279.631579 444.675538,279.631579 L444.059477,279.631579 C443.786601,279.631579 443.542877,279.797727 443.449624,280.04732 L442.462438,282.689522 C442.369184,282.939115 442.12546,283.105263 441.852584,283.105263 L438.103255,283.105263 C437.95997,283.105263 437.83365,283.013789 437.792477,282.880215 L437.013769,280.353899 C436.962278,280.186849 437.059676,280.010802 437.231314,279.960686 C437.26156,279.951855 437.292969,279.947368 437.324547,279.947368 L441.64376,279.947368 C441.822955,279.947368 441.968221,280.088752 441.968221,280.263158 C441.968221,280.293892 441.963611,280.324461 441.954537,280.353899 L441.484263,281.879585 C441.439246,282.02563 441.521146,282.180516 441.667191,282.225533 C441.807224,282.268696 441.956628,282.19521 442.007914,282.057943 Z M438.672999,285 C438.225011,285 437.861845,284.646541 437.861845,284.210526 C437.861845,283.774512 438.225011,283.421053 438.672999,283.421053 C439.120987,283.421053 439.484153,283.774512 439.484153,284.210526 C439.484153,284.646541 439.120987,285 438.672999,285 Z M441.268692,285 C440.820704,285 440.457538,284.646541 440.457538,284.210526 C440.457538,283.774512 440.820704,283.421053 441.268692,283.421053 C441.71668,283.421053 442.079846,283.774512 442.079846,284.210526 C442.079846,284.646541 441.71668,285 441.268692,285 Z" id="Combined-Shape" fill="#386689"></path>
        </g>
    </g>
</svg>