<?xml version="1.0" encoding="UTF-8"?>
<svg width="59px" height="33px" viewBox="0 0 59 33" version="1.1" xmlns="http://www.w3.org/2000/svg" xmlns:xlink="http://www.w3.org/1999/xlink">
    <!-- Generator: Sketch 52.4 (67378) - http://www.bohemiancoding.com/sketch -->
    <title>categories-list-blue</title>
    <desc>Created with Sketch.</desc>
    <g id="Page-1" stroke="none" stroke-width="1" fill="none" fill-rule="evenodd">
        <g id="Icons" transform="translate(-365.000000, -566.000000)">
            <rect id="Rectangle" fill="#386689" x="371" y="587" width="13" height="2" rx="1"></rect>
            <rect id="Rectangle" fill="#577E9C" x="388" y="587" width="13" height="2" rx="1"></rect>
            <rect id="Rectangle" fill="#577E9C" x="405" y="587" width="13" height="2" rx="1"></rect>
            <rect id="Rectangle" fill="#386689" x="371" y="591" width="8" height="2" rx="1"></rect>
            <rect id="Rectangle" fill="#577E9C" x="388" y="591" width="8" height="2" rx="1"></rect>
            <rect id="Rectangle" fill="#577E9C" x="405" y="591" width="8" height="2" rx="1"></rect>
            <rect id="Rectangle-17" fill="#577E9C" x="371" y="572" width="13" height="12" rx="2"></rect>
            <rect id="Rectangle-17" fill="#386689" x="405" y="572" width="13" height="12" rx="2"></rect>
            <rect id="Rectangle-17" fill="#386689" x="388" y="572" width="13" height="12" rx="2"></rect>
            <path d="M377.270211,580.138346 L376.034096,580.77799 C375.788844,580.904899 375.487147,580.808963 375.360238,580.563711 C375.310725,580.468025 375.293442,580.358906 375.310964,580.252604 L375.537321,578.879328 C375.563712,578.719219 375.510763,578.556261 375.395303,578.442243 L374.404985,577.464289 C374.2085,577.270257 374.206512,576.953681 374.400543,576.757196 C374.476245,576.680537 374.574683,576.630381 374.681197,576.614196 L376.057208,576.405109 C376.217636,576.380731 376.356256,576.280018 376.429015,576.134975 L377.05308,574.890922 C377.176898,574.644095 377.477365,574.544376 377.724192,574.668194 C377.820492,574.716502 377.898613,574.794622 377.94692,574.890922 L378.570985,576.134975 C378.643744,576.280018 378.782364,576.380731 378.942792,576.405109 L380.318803,576.614196 C380.591811,576.65568 380.779499,576.910626 380.738015,577.183635 C380.72183,577.290149 380.671674,577.388587 380.595015,577.464289 L379.604697,578.442243 C379.489237,578.556261 379.436288,578.719219 379.462679,578.879328 L379.689036,580.252604 C379.733947,580.52507 379.549477,580.782354 379.277011,580.827265 C379.170708,580.844787 379.061589,580.827504 378.965904,580.77799 L377.729789,580.138346 C377.585672,580.063771 377.414328,580.063771 377.270211,580.138346 Z" id="Star" fill="#386689"></path>
            <path d="M394.270211,580.138346 L393.034096,580.77799 C392.788844,580.904899 392.487147,580.808963 392.360238,580.563711 C392.310725,580.468025 392.293442,580.358906 392.310964,580.252604 L392.537321,578.879328 C392.563712,578.719219 392.510763,578.556261 392.395303,578.442243 L391.404985,577.464289 C391.2085,577.270257 391.206512,576.953681 391.400543,576.757196 C391.476245,576.680537 391.574683,576.630381 391.681197,576.614196 L393.057208,576.405109 C393.217636,576.380731 393.356256,576.280018 393.429015,576.134975 L394.05308,574.890922 C394.176898,574.644095 394.477365,574.544376 394.724192,574.668194 C394.820492,574.716502 394.898613,574.794622 394.94692,574.890922 L395.570985,576.134975 C395.643744,576.280018 395.782364,576.380731 395.942792,576.405109 L397.318803,576.614196 C397.591811,576.65568 397.779499,576.910626 397.738015,577.183635 C397.72183,577.290149 397.671674,577.388587 397.595015,577.464289 L396.604697,578.442243 C396.489237,578.556261 396.436288,578.719219 396.462679,578.879328 L396.689036,580.252604 C396.733947,580.52507 396.549477,580.782354 396.277011,580.827265 C396.170708,580.844787 396.061589,580.827504 395.965904,580.77799 L394.729789,580.138346 C394.585672,580.063771 394.414328,580.063771 394.270211,580.138346 Z" id="Star" fill="#577E9C"></path>
            <path d="M411.270211,580.138346 L410.034096,580.77799 C409.788844,580.904899 409.487147,580.808963 409.360238,580.563711 C409.310725,580.468025 409.293442,580.358906 409.310964,580.252604 L409.537321,578.879328 C409.563712,578.719219 409.510763,578.556261 409.395303,578.442243 L408.404985,577.464289 C408.2085,577.270257 408.206512,576.953681 408.400543,576.757196 C408.476245,576.680537 408.574683,576.630381 408.681197,576.614196 L410.057208,576.405109 C410.217636,576.380731 410.356256,576.280018 410.429015,576.134975 L411.05308,574.890922 C411.176898,574.644095 411.477365,574.544376 411.724192,574.668194 C411.820492,574.716502 411.898613,574.794622 411.94692,574.890922 L412.570985,576.134975 C412.643744,576.280018 412.782364,576.380731 412.942792,576.405109 L414.318803,576.614196 C414.591811,576.65568 414.779499,576.910626 414.738015,577.183635 C414.72183,577.290149 414.671674,577.388587 414.595015,577.464289 L413.604697,578.442243 C413.489237,578.556261 413.436288,578.719219 413.462679,578.879328 L413.689036,580.252604 C413.733947,580.52507 413.549477,580.782354 413.277011,580.827265 C413.170708,580.844787 413.061589,580.827504 412.965904,580.77799 L411.729789,580.138346 C411.585672,580.063771 411.414328,580.063771 411.270211,580.138346 Z" id="Star" fill="#577E9C"></path>
        </g>
    </g>
</svg>