<?xml version="1.0" encoding="UTF-8"?>
<svg width="59px" height="33px" viewBox="0 0 59 33" version="1.1" xmlns="http://www.w3.org/2000/svg" xmlns:xlink="http://www.w3.org/1999/xlink">
    <!-- Generator: Sketch 52.4 (67378) - http://www.bohemiancoding.com/sketch -->
    <title>archive-title</title>
    <desc>Created with Sketch.</desc>
    <g id="Page-1" stroke="none" stroke-width="1" fill="none" fill-rule="evenodd">
        <g id="Icons" transform="translate(-298.000000, -566.000000)">
            <rect id="Rectangle" fill="#60666A" x="317" y="588" width="22" height="2" rx="1"></rect>
            <rect id="Rectangle" fill="#60666A" x="309" y="583" width="38" height="2" rx="1"></rect>
            <path d="M327.770211,578.138346 L326.534096,578.77799 C326.288844,578.904899 325.987147,578.808963 325.860238,578.563711 C325.810725,578.468025 325.793442,578.358906 325.810964,578.252604 L326.037321,576.879328 C326.063712,576.719219 326.010763,576.556261 325.895303,576.442243 L324.904985,575.464289 C324.7085,575.270257 324.706512,574.953681 324.900543,574.757196 C324.976245,574.680537 325.074683,574.630381 325.181197,574.614196 L326.557208,574.405109 C326.717636,574.380731 326.856256,574.280018 326.929015,574.134975 L327.55308,572.890922 C327.676898,572.644095 327.977365,572.544376 328.224192,572.668194 C328.320492,572.716502 328.398613,572.794622 328.44692,572.890922 L329.070985,574.134975 C329.143744,574.280018 329.282364,574.380731 329.442792,574.405109 L330.818803,574.614196 C331.091811,574.65568 331.279499,574.910626 331.238015,575.183635 C331.22183,575.290149 331.171674,575.388587 331.095015,575.464289 L330.104697,576.442243 C329.989237,576.556261 329.936288,576.719219 329.962679,576.879328 L330.189036,578.252604 C330.233947,578.52507 330.049477,578.782354 329.777011,578.827265 C329.670708,578.844787 329.561589,578.827504 329.465904,578.77799 L328.229789,578.138346 C328.085672,578.063771 327.914328,578.063771 327.770211,578.138346 Z" id="Star" fill="#4E555A"></path>
        </g>
    </g>
</svg>