<?xml version="1.0" encoding="UTF-8"?>
<svg width="59px" height="33px" viewBox="0 0 59 33" version="1.1" xmlns="http://www.w3.org/2000/svg" xmlns:xlink="http://www.w3.org/1999/xlink">
    <!-- Generator: Sketch 52.4 (67378) - http://www.bohemiancoding.com/sketch -->
    <title>categories-list</title>
    <desc>Created with Sketch.</desc>
    <g id="Page-1" stroke="none" stroke-width="1" fill="none" fill-rule="evenodd">
        <g id="Icons" transform="translate(-235.000000, -566.000000)">
            <rect id="Rectangle" fill="#4E555A" x="241" y="587" width="13" height="2" rx="1"></rect>
            <rect id="Rectangle" fill="#60666A" x="258" y="587" width="13" height="2" rx="1"></rect>
            <rect id="Rectangle" fill="#60666A" x="275" y="587" width="13" height="2" rx="1"></rect>
            <rect id="Rectangle" fill="#4E555A" x="241" y="591" width="8" height="2" rx="1"></rect>
            <rect id="Rectangle" fill="#60666A" x="258" y="591" width="8" height="2" rx="1"></rect>
            <rect id="Rectangle" fill="#60666A" x="275" y="591" width="8" height="2" rx="1"></rect>
            <rect id="Rectangle-17" fill="#60666A" x="241" y="572" width="13" height="12" rx="2"></rect>
            <rect id="Rectangle-17" fill="#4E555A" x="275" y="572" width="13" height="12" rx="2"></rect>
            <rect id="Rectangle-17" fill="#4E555A" x="258" y="572" width="13" height="12" rx="2"></rect>
            <path d="M247.270211,580.138346 L246.034096,580.77799 C245.788844,580.904899 245.487147,580.808963 245.360238,580.563711 C245.310725,580.468025 245.293442,580.358906 245.310964,580.252604 L245.537321,578.879328 C245.563712,578.719219 245.510763,578.556261 245.395303,578.442243 L244.404985,577.464289 C244.2085,577.270257 244.206512,576.953681 244.400543,576.757196 C244.476245,576.680537 244.574683,576.630381 244.681197,576.614196 L246.057208,576.405109 C246.217636,576.380731 246.356256,576.280018 246.429015,576.134975 L247.05308,574.890922 C247.176898,574.644095 247.477365,574.544376 247.724192,574.668194 C247.820492,574.716502 247.898613,574.794622 247.94692,574.890922 L248.570985,576.134975 C248.643744,576.280018 248.782364,576.380731 248.942792,576.405109 L250.318803,576.614196 C250.591811,576.65568 250.779499,576.910626 250.738015,577.183635 C250.72183,577.290149 250.671674,577.388587 250.595015,577.464289 L249.604697,578.442243 C249.489237,578.556261 249.436288,578.719219 249.462679,578.879328 L249.689036,580.252604 C249.733947,580.52507 249.549477,580.782354 249.277011,580.827265 C249.170708,580.844787 249.061589,580.827504 248.965904,580.77799 L247.729789,580.138346 C247.585672,580.063771 247.414328,580.063771 247.270211,580.138346 Z" id="Star" fill="#4E555A"></path>
            <path d="M264.270211,580.138346 L263.034096,580.77799 C262.788844,580.904899 262.487147,580.808963 262.360238,580.563711 C262.310725,580.468025 262.293442,580.358906 262.310964,580.252604 L262.537321,578.879328 C262.563712,578.719219 262.510763,578.556261 262.395303,578.442243 L261.404985,577.464289 C261.2085,577.270257 261.206512,576.953681 261.400543,576.757196 C261.476245,576.680537 261.574683,576.630381 261.681197,576.614196 L263.057208,576.405109 C263.217636,576.380731 263.356256,576.280018 263.429015,576.134975 L264.05308,574.890922 C264.176898,574.644095 264.477365,574.544376 264.724192,574.668194 C264.820492,574.716502 264.898613,574.794622 264.94692,574.890922 L265.570985,576.134975 C265.643744,576.280018 265.782364,576.380731 265.942792,576.405109 L267.318803,576.614196 C267.591811,576.65568 267.779499,576.910626 267.738015,577.183635 C267.72183,577.290149 267.671674,577.388587 267.595015,577.464289 L266.604697,578.442243 C266.489237,578.556261 266.436288,578.719219 266.462679,578.879328 L266.689036,580.252604 C266.733947,580.52507 266.549477,580.782354 266.277011,580.827265 C266.170708,580.844787 266.061589,580.827504 265.965904,580.77799 L264.729789,580.138346 C264.585672,580.063771 264.414328,580.063771 264.270211,580.138346 Z" id="Star" fill="#60666A"></path>
            <path d="M281.270211,580.138346 L280.034096,580.77799 C279.788844,580.904899 279.487147,580.808963 279.360238,580.563711 C279.310725,580.468025 279.293442,580.358906 279.310964,580.252604 L279.537321,578.879328 C279.563712,578.719219 279.510763,578.556261 279.395303,578.442243 L278.404985,577.464289 C278.2085,577.270257 278.206512,576.953681 278.400543,576.757196 C278.476245,576.680537 278.574683,576.630381 278.681197,576.614196 L280.057208,576.405109 C280.217636,576.380731 280.356256,576.280018 280.429015,576.134975 L281.05308,574.890922 C281.176898,574.644095 281.477365,574.544376 281.724192,574.668194 C281.820492,574.716502 281.898613,574.794622 281.94692,574.890922 L282.570985,576.134975 C282.643744,576.280018 282.782364,576.380731 282.942792,576.405109 L284.318803,576.614196 C284.591811,576.65568 284.779499,576.910626 284.738015,577.183635 C284.72183,577.290149 284.671674,577.388587 284.595015,577.464289 L283.604697,578.442243 C283.489237,578.556261 283.436288,578.719219 283.462679,578.879328 L283.689036,580.252604 C283.733947,580.52507 283.549477,580.782354 283.277011,580.827265 C283.170708,580.844787 283.061589,580.827504 282.965904,580.77799 L281.729789,580.138346 C281.585672,580.063771 281.414328,580.063771 281.270211,580.138346 Z" id="Star" fill="#60666A"></path>
        </g>
    </g>
</svg>