<?xml version="1.0" encoding="UTF-8"?>
<svg width="59px" height="33px" viewBox="0 0 59 33" version="1.1" xmlns="http://www.w3.org/2000/svg" xmlns:xlink="http://www.w3.org/1999/xlink">
    <!-- Generator: Sketch 52.4 (67378) - http://www.bohemiancoding.com/sketch -->
    <title>archive-title-blue</title>
    <desc>Created with Sketch.</desc>
    <g id="Page-1" stroke="none" stroke-width="1" fill="none" fill-rule="evenodd">
        <g id="Icons" transform="translate(-428.000000, -566.000000)">
            <rect id="Rectangle" fill="#577E9C" x="447" y="588" width="22" height="2" rx="1"></rect>
            <rect id="Rectangle" fill="#577E9C" x="439" y="583" width="38" height="2" rx="1"></rect>
            <path d="M457.770211,578.138346 L456.534096,578.77799 C456.288844,578.904899 455.987147,578.808963 455.860238,578.563711 C455.810725,578.468025 455.793442,578.358906 455.810964,578.252604 L456.037321,576.879328 C456.063712,576.719219 456.010763,576.556261 455.895303,576.442243 L454.904985,575.464289 C454.7085,575.270257 454.706512,574.953681 454.900543,574.757196 C454.976245,574.680537 455.074683,574.630381 455.181197,574.614196 L456.557208,574.405109 C456.717636,574.380731 456.856256,574.280018 456.929015,574.134975 L457.55308,572.890922 C457.676898,572.644095 457.977365,572.544376 458.224192,572.668194 C458.320492,572.716502 458.398613,572.794622 458.44692,572.890922 L459.070985,574.134975 C459.143744,574.280018 459.282364,574.380731 459.442792,574.405109 L460.818803,574.614196 C461.091811,574.65568 461.279499,574.910626 461.238015,575.183635 C461.22183,575.290149 461.171674,575.388587 461.095015,575.464289 L460.104697,576.442243 C459.989237,576.556261 459.936288,576.719219 459.962679,576.879328 L460.189036,578.252604 C460.233947,578.52507 460.049477,578.782354 459.777011,578.827265 C459.670708,578.844787 459.561589,578.827504 459.465904,578.77799 L458.229789,578.138346 C458.085672,578.063771 457.914328,578.063771 457.770211,578.138346 Z" id="Star" fill="#386689"></path>
        </g>
    </g>
</svg>