<?xml version="1.0" encoding="UTF-8"?>
<svg width="59px" height="33px" viewBox="0 0 59 33" version="1.1" xmlns="http://www.w3.org/2000/svg" xmlns:xlink="http://www.w3.org/1999/xlink">
    <!-- Generator: Sketch 52.4 (67378) - http://www.bohemiancoding.com/sketch -->
    <title>cart-totals</title>
    <desc>Created with Sketch.</desc>
    <g id="Page-1" stroke="none" stroke-width="1" fill="none" fill-rule="evenodd">
        <g id="Icons" transform="translate(-298.000000, -677.000000)">
            <path d="M313.015829,693.115886 L314.9902,687.831482 C315.176708,687.332296 315.664155,687 316.209908,687 L318.351077,687 C318.709467,687 319,687.282768 319,687.631579 C319,687.98039 318.709467,688.263158 318.351077,688.263158 L317.118955,688.263158 C316.573202,688.263158 316.085754,688.595454 315.899247,689.09464 L313.924876,694.379044 C313.738368,694.87823 313.250921,695.210526 312.705168,695.210526 L305.20651,695.210526 C304.91994,695.210526 304.667299,695.027578 304.584954,694.76043 L303.027538,689.707799 C302.924556,689.373698 303.119352,689.021603 303.462627,688.921373 C303.52312,688.90371 303.585938,688.894737 303.649094,688.894737 L312.287519,688.894737 C312.645909,688.894737 312.936442,689.177504 312.936442,689.526316 C312.936442,689.587784 312.927223,689.648923 312.909075,689.707799 L311.968476,692.759153 C311.878439,693.051257 312.042246,693.361044 312.33435,693.451081 C312.614429,693.537413 312.913252,693.390432 313.015829,693.115886 Z M306.345999,699 C305.450023,699 304.723691,698.293081 304.723691,697.421053 C304.723691,696.549024 305.450023,695.842105 306.345999,695.842105 C307.241975,695.842105 307.968307,696.549024 307.968307,697.421053 C307.968307,698.293081 307.241975,699 306.345999,699 Z M311.537384,699 C310.641408,699 309.915076,698.293081 309.915076,697.421053 C309.915076,696.549024 310.641408,695.842105 311.537384,695.842105 C312.43336,695.842105 313.159692,696.549024 313.159692,697.421053 C313.159692,698.293081 312.43336,699 311.537384,699 Z" id="Combined-Shape" fill="#4E555A"></path>
            <path d="M333.851103,696.774003 C334.235294,697.104874 334.862132,697.29099 335.306985,697.29099 C337.288603,697.29099 337.814338,695.078287 337.814338,693.217134 C337.632353,693.816839 336.803309,694.788774 334.943015,694.788774 C333.588235,694.788774 331,693.651403 331,690.528804 C331,687.923191 332.920956,686 335.8125,686 C338.299632,686 340.28125,688.254062 340.564338,691.128508 C340.604779,691.583456 340.625,692.079764 340.625,692.576071 C340.625,696.050222 339.613971,700 335.428309,700 C334.235294,700 332.860294,699.793205 331.970588,698.676514 C331.727941,698.387001 331.606618,698.035451 331.606618,697.704579 C331.606618,697.063516 332.172794,696.401773 332.860294,696.401773 C333.204044,696.401773 333.568015,696.546529 333.851103,696.774003 Z M333.625,690.375 C333.625,691.331395 334.418605,692.125 335.375,692.125 C336.331395,692.125 337.125,691.331395 337.125,690.375 C337.125,689.418605 336.331395,688.625 335.375,688.625 C334.418605,688.625 333.625,689.418605 333.625,690.375 Z M345.226103,696.774003 C345.610294,697.104874 346.237132,697.29099 346.681985,697.29099 C348.663603,697.29099 349.189338,695.078287 349.189338,693.217134 C349.007353,693.816839 348.178309,694.788774 346.318015,694.788774 C344.963235,694.788774 342.375,693.651403 342.375,690.528804 C342.375,687.923191 344.295956,686 347.1875,686 C349.674632,686 351.65625,688.254062 351.939338,691.128508 C351.979779,691.583456 352,692.079764 352,692.576071 C352,696.050222 350.988971,700 346.803309,700 C345.610294,700 344.235294,699.793205 343.345588,698.676514 C343.102941,698.387001 342.981618,698.035451 342.981618,697.704579 C342.981618,697.063516 343.547794,696.401773 344.235294,696.401773 C344.579044,696.401773 344.943015,696.546529 345.226103,696.774003 Z M345,690.375 C345,691.331395 345.793605,692.125 346.75,692.125 C347.706395,692.125 348.5,691.331395 348.5,690.375 C348.5,689.418605 347.706395,688.625 346.75,688.625 C345.793605,688.625 345,689.418605 345,690.375 Z" id="99" fill="#4E555A"></path>
            <path d="M325.297505,687.799065 C326.940499,688.011682 327.785029,688.714953 327.785029,689.712617 C327.785029,690.61215 326.863724,691.315421 326.802303,691.25 C326.126679,690.595794 325.143954,690.154206 324.268714,690.154206 C323.424184,690.154206 323.040307,690.432243 323.040307,690.922897 C323.040307,691.478972 323.761996,691.609813 324.729367,691.838785 C326.034549,692.116822 328,692.721963 328,694.880841 C328,696.598131 327.047985,697.71028 325.28215,698.070093 L325.28215,698.478972 C325.28215,699.476636 324.928983,700 324.084453,700 L324.007678,700 C323.132438,700 322.809981,699.509346 322.809981,698.478972 L322.809981,698.151869 C320.982726,697.939252 320,697.170561 320,696.123832 C320,695.273364 320.859885,694.586449 320.921305,694.668224 C321.550864,695.257009 322.733205,695.796729 323.746641,695.796729 C324.621881,695.796729 325.021113,695.535047 325.021113,695.028037 C325.021113,694.455607 324.299424,694.308411 323.393474,694.095794 C322.134357,693.817757 320.214971,693.261682 320.214971,691.004673 C320.214971,689.369159 321.166987,688.257009 322.825336,687.880841 L322.825336,687.521028 C322.825336,686.523364 323.178503,686 324.023033,686 L324.099808,686 C324.975048,686 325.297505,686.490654 325.297505,687.521028 L325.297505,687.799065 Z" id="$" fill="#60666A"></path>
        </g>
    </g>
</svg>