<?xml version="1.0" encoding="UTF-8"?>
<svg width="59px" height="33px" viewBox="0 0 59 33" version="1.1" xmlns="http://www.w3.org/2000/svg" xmlns:xlink="http://www.w3.org/1999/xlink">
    <!-- Generator: Sketch 52.4 (67378) - http://www.bohemiancoding.com/sketch -->
    <title>cart-totals-blue</title>
    <desc>Created with Sketch.</desc>
    <g id="Page-1" stroke="none" stroke-width="1" fill="none" fill-rule="evenodd">
        <g id="Icons" transform="translate(-428.000000, -677.000000)">
            <path d="M443.015829,693.115886 L444.9902,687.831482 C445.176708,687.332296 445.664155,687 446.209908,687 L448.351077,687 C448.709467,687 449,687.282768 449,687.631579 C449,687.98039 448.709467,688.263158 448.351077,688.263158 L447.118955,688.263158 C446.573202,688.263158 446.085754,688.595454 445.899247,689.09464 L443.924876,694.379044 C443.738368,694.87823 443.250921,695.210526 442.705168,695.210526 L435.20651,695.210526 C434.91994,695.210526 434.667299,695.027578 434.584954,694.76043 L433.027538,689.707799 C432.924556,689.373698 433.119352,689.021603 433.462627,688.921373 C433.52312,688.90371 433.585938,688.894737 433.649094,688.894737 L442.287519,688.894737 C442.645909,688.894737 442.936442,689.177504 442.936442,689.526316 C442.936442,689.587784 442.927223,689.648923 442.909075,689.707799 L441.968476,692.759153 C441.878439,693.051257 442.042246,693.361044 442.33435,693.451081 C442.614429,693.537413 442.913252,693.390432 443.015829,693.115886 Z M436.345999,699 C435.450023,699 434.723691,698.293081 434.723691,697.421053 C434.723691,696.549024 435.450023,695.842105 436.345999,695.842105 C437.241975,695.842105 437.968307,696.549024 437.968307,697.421053 C437.968307,698.293081 437.241975,699 436.345999,699 Z M441.537384,699 C440.641408,699 439.915076,698.293081 439.915076,697.421053 C439.915076,696.549024 440.641408,695.842105 441.537384,695.842105 C442.43336,695.842105 443.159692,696.549024 443.159692,697.421053 C443.159692,698.293081 442.43336,699 441.537384,699 Z" id="Combined-Shape" fill="#386689"></path>
            <path d="M463.851103,696.774003 C464.235294,697.104874 464.862132,697.29099 465.306985,697.29099 C467.288603,697.29099 467.814338,695.078287 467.814338,693.217134 C467.632353,693.816839 466.803309,694.788774 464.943015,694.788774 C463.588235,694.788774 461,693.651403 461,690.528804 C461,687.923191 462.920956,686 465.8125,686 C468.299632,686 470.28125,688.254062 470.564338,691.128508 C470.604779,691.583456 470.625,692.079764 470.625,692.576071 C470.625,696.050222 469.613971,700 465.428309,700 C464.235294,700 462.860294,699.793205 461.970588,698.676514 C461.727941,698.387001 461.606618,698.035451 461.606618,697.704579 C461.606618,697.063516 462.172794,696.401773 462.860294,696.401773 C463.204044,696.401773 463.568015,696.546529 463.851103,696.774003 Z M463.625,690.375 C463.625,691.331395 464.418605,692.125 465.375,692.125 C466.331395,692.125 467.125,691.331395 467.125,690.375 C467.125,689.418605 466.331395,688.625 465.375,688.625 C464.418605,688.625 463.625,689.418605 463.625,690.375 Z M475.226103,696.774003 C475.610294,697.104874 476.237132,697.29099 476.681985,697.29099 C478.663603,697.29099 479.189338,695.078287 479.189338,693.217134 C479.007353,693.816839 478.178309,694.788774 476.318015,694.788774 C474.963235,694.788774 472.375,693.651403 472.375,690.528804 C472.375,687.923191 474.295956,686 477.1875,686 C479.674632,686 481.65625,688.254062 481.939338,691.128508 C481.979779,691.583456 482,692.079764 482,692.576071 C482,696.050222 480.988971,700 476.803309,700 C475.610294,700 474.235294,699.793205 473.345588,698.676514 C473.102941,698.387001 472.981618,698.035451 472.981618,697.704579 C472.981618,697.063516 473.547794,696.401773 474.235294,696.401773 C474.579044,696.401773 474.943015,696.546529 475.226103,696.774003 Z M475,690.375 C475,691.331395 475.793605,692.125 476.75,692.125 C477.706395,692.125 478.5,691.331395 478.5,690.375 C478.5,689.418605 477.706395,688.625 476.75,688.625 C475.793605,688.625 475,689.418605 475,690.375 Z" id="99" fill="#386689"></path>
            <path d="M455.297505,687.799065 C456.940499,688.011682 457.785029,688.714953 457.785029,689.712617 C457.785029,690.61215 456.863724,691.315421 456.802303,691.25 C456.126679,690.595794 455.143954,690.154206 454.268714,690.154206 C453.424184,690.154206 453.040307,690.432243 453.040307,690.922897 C453.040307,691.478972 453.761996,691.609813 454.729367,691.838785 C456.034549,692.116822 458,692.721963 458,694.880841 C458,696.598131 457.047985,697.71028 455.28215,698.070093 L455.28215,698.478972 C455.28215,699.476636 454.928983,700 454.084453,700 L454.007678,700 C453.132438,700 452.809981,699.509346 452.809981,698.478972 L452.809981,698.151869 C450.982726,697.939252 450,697.170561 450,696.123832 C450,695.273364 450.859885,694.586449 450.921305,694.668224 C451.550864,695.257009 452.733205,695.796729 453.746641,695.796729 C454.621881,695.796729 455.021113,695.535047 455.021113,695.028037 C455.021113,694.455607 454.299424,694.308411 453.393474,694.095794 C452.134357,693.817757 450.214971,693.261682 450.214971,691.004673 C450.214971,689.369159 451.166987,688.257009 452.825336,687.880841 L452.825336,687.521028 C452.825336,686.523364 453.178503,686 454.023033,686 L454.099808,686 C454.975048,686 455.297505,686.490654 455.297505,687.521028 L455.297505,687.799065 Z" id="$" fill="#577E9C"></path>
        </g>
    </g>
</svg>