<?xml version="1.0" encoding="UTF-8"?>
<svg width="59px" height="33px" viewBox="0 0 59 33" version="1.1" xmlns="http://www.w3.org/2000/svg" xmlns:xlink="http://www.w3.org/1999/xlink">
    <!-- Generator: Sketch 52.4 (67378) - http://www.bohemiancoding.com/sketch -->
    <title>breadcrumbs-blue</title>
    <desc>Created with Sketch.</desc>
    <g id="Page-1" stroke="none" stroke-width="1" fill="none" fill-rule="evenodd">
        <g id="Icons" transform="translate(-365.000000, -270.000000)">
            <path d="M373,283 L383.215801,283 C383.839986,283 384.428381,283.291417 384.806664,283.787914 L386.792221,286.393957 C387.064979,286.751951 387.064979,287.248049 386.792221,287.606043 L384.806664,290.212086 C384.428381,290.708583 383.839986,291 383.215801,291 L373,291 C371.895431,291 371,290.104569 371,289 L371,285 C371,283.895431 371.895431,283 373,283 Z" id="Rectangle-3-Copy-10" fill="#386689"></path>
            <path d="M386.498673,283 L400.279401,283 C400.913569,283 401.510157,283.300762 401.887296,283.8106 L403.806661,286.4053 C404.068064,286.758679 404.068064,287.241321 403.806661,287.5947 L401.887296,290.1894 C401.510157,290.699238 400.913569,291 400.279401,291 L386.498673,291 C386.22253,291 385.998673,290.776142 385.998673,290.5 C385.998673,290.392945 386.033033,290.288717 386.096699,290.20265 L388.025864,287.5947 C388.287267,287.241321 388.287267,286.758679 388.025864,286.4053 L386.096699,283.79735 C385.932477,283.575346 385.979319,283.262248 386.201323,283.098026 C386.287389,283.034361 386.391618,283 386.498673,283 Z" id="Rectangle-3-Copy-11" fill="#386689"></path>
            <path d="M404.000061,283 L416,283 C417.104569,283 418,283.895431 418,285 L418,289 C418,290.104569 417.104569,291 416,291 L404.000061,291 C403.723918,291 403.500061,290.776142 403.500061,290.5 C403.500061,290.391815 403.535149,290.286549 403.60006,290.200001 L405.550054,287.599998 C405.816719,287.244443 405.816719,286.755557 405.550054,286.400002 L403.60006,283.799999 C403.434375,283.579085 403.479147,283.265684 403.700061,283.099999 C403.786609,283.035089 403.891876,283 404.000061,283 Z" id="Rectangle-3-Copy-12" fill="#577E9C"></path>
            <rect id="Rectangle-Copy" fill="#386689" x="408" y="286" width="7" height="2" rx="1"></rect>
            <rect id="Rectangle-Copy-7" fill="#577E9C" x="390" y="286" width="10" height="2" rx="1"></rect>
            <rect id="Rectangle-Copy-23" fill="#577E9C" x="374" y="286" width="9" height="2" rx="1"></rect>
        </g>
    </g>
</svg>