<?xml version="1.0" encoding="UTF-8"?>
<svg width="59px" height="33px" viewBox="0 0 59 33" version="1.1" xmlns="http://www.w3.org/2000/svg" xmlns:xlink="http://www.w3.org/1999/xlink">
    <!-- Generator: Sketch 52.4 (67378) - http://www.bohemiancoding.com/sketch -->
    <title>breadcrumbs</title>
    <desc>Created with Sketch.</desc>
    <g id="Page-1" stroke="none" stroke-width="1" fill="none" fill-rule="evenodd">
        <g id="Icons" transform="translate(-235.000000, -270.000000)">
            <path d="M243,283 L253.215801,283 C253.839986,283 254.428381,283.291417 254.806664,283.787914 L256.792221,286.393957 C257.064979,286.751951 257.064979,287.248049 256.792221,287.606043 L254.806664,290.212086 C254.428381,290.708583 253.839986,291 253.215801,291 L243,291 C241.895431,291 241,290.104569 241,289 L241,285 C241,283.895431 241.895431,283 243,283 Z" id="Rectangle-3" fill="#4E555A"></path>
            <path d="M256.498673,283 L270.279401,283 C270.913569,283 271.510157,283.300762 271.887296,283.8106 L273.806661,286.4053 C274.068064,286.758679 274.068064,287.241321 273.806661,287.5947 L271.887296,290.1894 C271.510157,290.699238 270.913569,291 270.279401,291 L256.498673,291 C256.22253,291 255.998673,290.776142 255.998673,290.5 C255.998673,290.392945 256.033033,290.288717 256.096699,290.20265 L258.025864,287.5947 C258.287267,287.241321 258.287267,286.758679 258.025864,286.4053 L256.096699,283.79735 C255.932477,283.575346 255.979319,283.262248 256.201323,283.098026 C256.287389,283.034361 256.391618,283 256.498673,283 Z" id="Rectangle-3" fill="#4E555A"></path>
            <path d="M274.000061,283 L286,283 C287.104569,283 288,283.895431 288,285 L288,289 C288,290.104569 287.104569,291 286,291 L274.000061,291 C273.723918,291 273.500061,290.776142 273.500061,290.5 C273.500061,290.391815 273.535149,290.286549 273.60006,290.200001 L275.550054,287.599998 C275.816719,287.244443 275.816719,286.755557 275.550054,286.400002 L273.60006,283.799999 C273.434375,283.579085 273.479147,283.265684 273.700061,283.099999 C273.786609,283.035089 273.891876,283 274.000061,283 Z" id="Rectangle-3" fill="#60666A"></path>
            <rect id="Rectangle" fill="#4E555A" x="278" y="286" width="7" height="2" rx="1"></rect>
            <rect id="Rectangle" fill="#60666A" x="260" y="286" width="10" height="2" rx="1"></rect>
            <rect id="Rectangle" fill="#60666A" x="244" y="286" width="9" height="2" rx="1"></rect>
        </g>
    </g>
</svg>