<?xml version="1.0" encoding="UTF-8"?>
<svg width="59px" height="33px" viewBox="0 0 59 33" version="1.1" xmlns="http://www.w3.org/2000/svg" xmlns:xlink="http://www.w3.org/1999/xlink">
    <!-- Generator: Sketch 52.4 (67378) - http://www.bohemiancoding.com/sketch -->
    <title>shopping-cart-blue</title>
    <desc>Created with Sketch.</desc>
    <g id="Page-1" stroke="none" stroke-width="1" fill="none" fill-rule="evenodd">
        <g id="Icons" transform="translate(-428.000000, -233.000000)">
            <path d="M445.297505,243.799065 C446.940499,244.011682 447.785029,244.714953 447.785029,245.712617 C447.785029,246.61215 446.863724,247.315421 446.802303,247.25 C446.126679,246.595794 445.143954,246.154206 444.268714,246.154206 C443.424184,246.154206 443.040307,246.432243 443.040307,246.922897 C443.040307,247.478972 443.761996,247.609813 444.729367,247.838785 C446.034549,248.116822 448,248.721963 448,250.880841 C448,252.598131 447.047985,253.71028 445.28215,254.070093 L445.28215,254.478972 C445.28215,255.476636 444.928983,256 444.084453,256 L444.007678,256 C443.132438,256 442.809981,255.509346 442.809981,254.478972 L442.809981,254.151869 C440.982726,253.939252 440,253.170561 440,252.123832 C440,251.273364 440.859885,250.586449 440.921305,250.668224 C441.550864,251.257009 442.733205,251.796729 443.746641,251.796729 C444.621881,251.796729 445.021113,251.535047 445.021113,251.028037 C445.021113,250.455607 444.299424,250.308411 443.393474,250.095794 C442.134357,249.817757 440.214971,249.261682 440.214971,247.004673 C440.214971,245.369159 441.166987,244.257009 442.825336,243.880841 L442.825336,243.521028 C442.825336,242.523364 443.178503,242 444.023033,242 L444.099808,242 C444.975048,242 445.297505,242.490654 445.297505,243.521028 L445.297505,243.799065 Z" id="$" fill="#577E9C"></path>
            <path d="M465.649732,248.683486 L468.734688,240.316514 C469.026106,239.526135 469.787742,239 470.640481,239 L473.986058,239 C474.546043,239 475,239.447715 475,240 C475,240.552285 474.546043,241 473.986058,241 L472.060867,241 C471.208128,241 470.446491,241.526135 470.155074,242.316514 L467.070118,250.683486 C466.778701,251.473865 466.017064,252 465.164325,252 L453.447671,252 C452.999906,252 452.605155,251.710332 452.47649,251.287348 L450.043029,243.287348 C449.882118,242.758355 450.186487,242.200872 450.722855,242.042174 C450.817375,242.014208 450.915528,242 451.014209,242 L464.511749,242 C465.071734,242 465.525691,242.447715 465.525691,243 C465.525691,243.097325 465.511285,243.194128 465.482929,243.287348 L464.009314,248.132092 C463.87018,248.589494 464.128188,249.073082 464.58559,249.212216 C465.024359,249.345682 465.491077,249.113788 465.649732,248.683486 Z M455.228123,258 C453.828161,258 452.693267,256.880712 452.693267,255.5 C452.693267,254.119288 453.828161,253 455.228123,253 C456.628085,253 457.762979,254.119288 457.762979,255.5 C457.762979,256.880712 456.628085,258 455.228123,258 Z M463.339662,258 C461.9397,258 460.804806,256.880712 460.804806,255.5 C460.804806,254.119288 461.9397,253 463.339662,253 C464.739625,253 465.874518,254.119288 465.874518,255.5 C465.874518,256.880712 464.739625,258 463.339662,258 Z" id="Combined-Shape" fill="#386689"></path>
        </g>
    </g>
</svg>