<?xml version="1.0" encoding="UTF-8"?>
<svg width="59px" height="33px" viewBox="0 0 59 33" version="1.1" xmlns="http://www.w3.org/2000/svg" xmlns:xlink="http://www.w3.org/1999/xlink">
    <!-- Generator: Sketch 52.4 (67378) - http://www.bohemiancoding.com/sketch -->
    <title>shopping-cart</title>
    <desc>Created with Sketch.</desc>
    <g id="Page-1" stroke="none" stroke-width="1" fill="none" fill-rule="evenodd">
        <g id="Icons" transform="translate(-298.000000, -233.000000)">
            <path d="M315.297505,243.799065 C316.940499,244.011682 317.785029,244.714953 317.785029,245.712617 C317.785029,246.61215 316.863724,247.315421 316.802303,247.25 C316.126679,246.595794 315.143954,246.154206 314.268714,246.154206 C313.424184,246.154206 313.040307,246.432243 313.040307,246.922897 C313.040307,247.478972 313.761996,247.609813 314.729367,247.838785 C316.034549,248.116822 318,248.721963 318,250.880841 C318,252.598131 317.047985,253.71028 315.28215,254.070093 L315.28215,254.478972 C315.28215,255.476636 314.928983,256 314.084453,256 L314.007678,256 C313.132438,256 312.809981,255.509346 312.809981,254.478972 L312.809981,254.151869 C310.982726,253.939252 310,253.170561 310,252.123832 C310,251.273364 310.859885,250.586449 310.921305,250.668224 C311.550864,251.257009 312.733205,251.796729 313.746641,251.796729 C314.621881,251.796729 315.021113,251.535047 315.021113,251.028037 C315.021113,250.455607 314.299424,250.308411 313.393474,250.095794 C312.134357,249.817757 310.214971,249.261682 310.214971,247.004673 C310.214971,245.369159 311.166987,244.257009 312.825336,243.880841 L312.825336,243.521028 C312.825336,242.523364 313.178503,242 314.023033,242 L314.099808,242 C314.975048,242 315.297505,242.490654 315.297505,243.521028 L315.297505,243.799065 Z" id="$" fill="#60666A"></path>
            <path d="M335.649732,248.683486 L338.734688,240.316514 C339.026106,239.526135 339.787742,239 340.640481,239 L343.986058,239 C344.546043,239 345,239.447715 345,240 C345,240.552285 344.546043,241 343.986058,241 L342.060867,241 C341.208128,241 340.446491,241.526135 340.155074,242.316514 L337.070118,250.683486 C336.778701,251.473865 336.017064,252 335.164325,252 L323.447671,252 C322.999906,252 322.605155,251.710332 322.47649,251.287348 L320.043029,243.287348 C319.882118,242.758355 320.186487,242.200872 320.722855,242.042174 C320.817375,242.014208 320.915528,242 321.014209,242 L334.511749,242 C335.071734,242 335.525691,242.447715 335.525691,243 C335.525691,243.097325 335.511285,243.194128 335.482929,243.287348 L334.009314,248.132092 C333.87018,248.589494 334.128188,249.073082 334.58559,249.212216 C335.024359,249.345682 335.491077,249.113788 335.649732,248.683486 Z M325.228123,258 C323.828161,258 322.693267,256.880712 322.693267,255.5 C322.693267,254.119288 323.828161,253 325.228123,253 C326.628085,253 327.762979,254.119288 327.762979,255.5 C327.762979,256.880712 326.628085,258 325.228123,258 Z M333.339662,258 C331.9397,258 330.804806,256.880712 330.804806,255.5 C330.804806,254.119288 331.9397,253 333.339662,253 C334.739625,253 335.874518,254.119288 335.874518,255.5 C335.874518,256.880712 334.739625,258 333.339662,258 Z" id="Combined-Shape" fill="#4E555A"></path>
        </g>
    </g>
</svg>