<?xml version="1.0" encoding="UTF-8"?>
<svg width="59px" height="33px" viewBox="0 0 59 33" version="1.1" xmlns="http://www.w3.org/2000/svg" xmlns:xlink="http://www.w3.org/1999/xlink">
    <!-- Generator: Sketch 52.4 (67378) - http://www.bohemiancoding.com/sketch -->
    <title>product-builder</title>
    <desc>Created with Sketch.</desc>
    <g id="Page-1" stroke="none" stroke-width="1" fill="none" fill-rule="evenodd">
        <g id="Icons" transform="translate(-298.000000, -307.000000)">
            <rect id="Rectangle" fill="#60666A" x="331" y="317" width="22" height="2" rx="1"></rect>
            <rect id="Rectangle" fill="#60666A" x="331" y="322" width="14" height="2" rx="1"></rect>
            <rect id="Rectangle-3" fill="#4E555A" x="331" y="327" width="22" height="8" rx="2"></rect>
            <rect id="Rectangle" fill="#60666A" x="334" y="330" width="16" height="2" rx="1"></rect>
            <rect id="Rectangle-17" fill="#4E555A" x="302" y="311" width="25" height="25" rx="2"></rect>
            <path d="M317.015829,323.115886 L318.9902,317.831482 C319.176708,317.332296 319.664155,317 320.209908,317 L322.351077,317 C322.709467,317 323,317.282768 323,317.631579 C323,317.98039 322.709467,318.263158 322.351077,318.263158 L321.118955,318.263158 C320.573202,318.263158 320.085754,318.595454 319.899247,319.09464 L317.924876,324.379044 C317.738368,324.87823 317.250921,325.210526 316.705168,325.210526 L309.20651,325.210526 C308.91994,325.210526 308.667299,325.027578 308.584954,324.76043 L307.027538,319.707799 C306.924556,319.373698 307.119352,319.021603 307.462627,318.921373 C307.52312,318.90371 307.585938,318.894737 307.649094,318.894737 L316.287519,318.894737 C316.645909,318.894737 316.936442,319.177504 316.936442,319.526316 C316.936442,319.587784 316.927223,319.648923 316.909075,319.707799 L315.968476,322.759153 C315.878439,323.051257 316.042246,323.361044 316.33435,323.451081 C316.614429,323.537413 316.913252,323.390432 317.015829,323.115886 Z M310.345999,329 C309.450023,329 308.723691,328.293081 308.723691,327.421053 C308.723691,326.549024 309.450023,325.842105 310.345999,325.842105 C311.241975,325.842105 311.968307,326.549024 311.968307,327.421053 C311.968307,328.293081 311.241975,329 310.345999,329 Z M315.537384,329 C314.641408,329 313.915076,328.293081 313.915076,327.421053 C313.915076,326.549024 314.641408,325.842105 315.537384,325.842105 C316.43336,325.842105 317.159692,326.549024 317.159692,327.421053 C317.159692,328.293081 316.43336,329 315.537384,329 Z" id="Combined-Shape" fill="#60666A"></path>
            <rect id="Rectangle" fill="#60666A" x="331" y="312" width="22" height="2" rx="1"></rect>
        </g>
    </g>
</svg>