<?xml version="1.0" encoding="UTF-8"?>
<svg width="59px" height="33px" viewBox="0 0 59 33" version="1.1" xmlns="http://www.w3.org/2000/svg" xmlns:xlink="http://www.w3.org/1999/xlink">
    <!-- Generator: Sketch 52.4 (67378) - http://www.bohemiancoding.com/sketch -->
    <title>product-meta-blue</title>
    <desc>Created with Sketch.</desc>
    <g id="Page-1" stroke="none" stroke-width="1" fill="none" fill-rule="evenodd">
        <g id="Icons" transform="translate(-428.000000, -455.000000)">
            <path d="M442,461 L464.505257,461 C466.102151,461 467.633165,461.636581 468.759297,462.768789 L474.025936,468.063845 C475.583825,469.630139 475.577011,472.16279 474.010717,473.720679 C473.960723,473.770404 473.909423,473.8188 473.85687,473.865813 L468.708306,478.471742 C467.608206,479.455896 466.183934,480 464.707865,480 L442,480 C440.895431,480 440,479.104569 440,478 L440,463 C440,461.895431 440.895431,461 442,461 Z M470,473 C471.104569,473 472,472.104569 472,471 C472,469.895431 471.104569,469 470,469 C468.895431,469 468,469.895431 468,471 C468,472.104569 468.895431,473 470,473 Z" id="Shape" fill="#386689" transform="translate(457.594955, 470.500000) rotate(-15.000000) translate(-457.594955, -470.500000) "></path>
            <path d="M456.085634,471.484523 L458.060006,466.055001 C458.246513,465.542106 458.73396,465.200685 459.279713,465.200685 L461.420882,465.200685 C461.779273,465.200685 462.069805,465.491217 462.069805,465.849608 C462.069805,466.207998 461.779273,466.498531 461.420882,466.498531 L460.18876,466.498531 C459.643007,466.498531 459.15556,466.839952 458.969053,467.352847 L456.994681,472.782369 C456.808174,473.295264 456.320726,473.636685 455.774974,473.636685 L448.276315,473.636685 C447.989745,473.636685 447.737104,473.448713 447.654759,473.174229 L446.097344,467.982844 C445.994361,467.639568 446.189157,467.277804 446.532433,467.174821 C446.592925,467.156674 446.655743,467.147454 446.718899,467.147454 L455.357324,467.147454 C455.715715,467.147454 456.006248,467.437987 456.006248,467.796377 C456.006248,467.859533 455.997028,467.922351 455.97888,467.982844 L455.033047,471.135573 C454.945019,471.429 455.111527,471.738229 455.404953,471.826257 C455.686557,471.910738 455.985161,471.760825 456.085634,471.484523 Z M449.415804,477.530224 C448.519828,477.530224 447.793496,476.803892 447.793496,475.907916 C447.793496,475.011941 448.519828,474.285609 449.415804,474.285609 C450.31178,474.285609 451.038112,475.011941 451.038112,475.907916 C451.038112,476.803892 450.31178,477.530224 449.415804,477.530224 Z M454.607189,477.530224 C453.711213,477.530224 452.984881,476.803892 452.984881,475.907916 C452.984881,475.011941 453.711213,474.285609 454.607189,474.285609 C455.503165,474.285609 456.229497,475.011941 456.229497,475.907916 C456.229497,476.803892 455.503165,477.530224 454.607189,477.530224 Z" id="Combined-Shape" fill="#577E9C" transform="translate(454.069805, 471.365454) rotate(-15.000000) translate(-454.069805, -471.365454) "></path>
        </g>
    </g>
</svg>