<?xml version="1.0" encoding="UTF-8"?>
<svg width="59px" height="33px" viewBox="0 0 59 33" version="1.1" xmlns="http://www.w3.org/2000/svg" xmlns:xlink="http://www.w3.org/1999/xlink">
    <!-- Generator: Sketch 52.4 (67378) - http://www.bohemiancoding.com/sketch -->
    <title>product-info</title>
    <desc>Created with Sketch.</desc>
    <g id="Page-1" stroke="none" stroke-width="1" fill="none" fill-rule="evenodd">
        <g id="Icons" transform="translate(-235.000000, -455.000000)">
            <rect id="Rectangle" fill="#60666A" x="241" y="465" width="10" height="2" rx="1"></rect>
            <rect id="Rectangle" fill="#60666A" x="259" y="465" width="10" height="2" rx="1"></rect>
            <rect id="Rectangle" fill="#60666A" x="277" y="465" width="10" height="2" rx="1"></rect>
            <path d="M256.99649,466.191275 C256.901336,467.416107 255.550142,470 253.799298,470 C253.41868,470 253,469.865772 253,469.530201 C253,469.379195 253.057093,469.194631 253.171278,469.043624 C253.970576,467.986577 254.294102,467.365772 254.294102,466.090604 C254.294102,465.469799 254.941153,465 255.607234,465 C256.406532,465 257.053583,465.520134 256.99649,466.191275 Z" id="," fill="#4E555A"></path>
            <path d="M274.99649,466.191275 C274.901336,467.416107 273.550142,470 271.799298,470 C271.41868,470 271,469.865772 271,469.530201 C271,469.379195 271.057093,469.194631 271.171278,469.043624 C271.970576,467.986577 272.294102,467.365772 272.294102,466.090604 C272.294102,465.469799 272.941153,465 273.607234,465 C274.406532,465 275.053583,465.520134 274.99649,466.191275 Z" id="," fill="#4E555A"></path>
            <rect id="Rectangle" fill="#60666A" x="241" y="475" width="10" height="2" rx="1"></rect>
            <rect id="Rectangle" fill="#60666A" x="259" y="475" width="10" height="2" rx="1"></rect>
            <path d="M256.99649,476.191275 C256.901336,477.416107 255.550142,480 253.799298,480 C253.41868,480 253,479.865772 253,479.530201 C253,479.379195 253.057093,479.194631 253.171278,479.043624 C253.970576,477.986577 254.294102,477.365772 254.294102,476.090604 C254.294102,475.469799 254.941153,475 255.607234,475 C256.406532,475 257.053583,475.520134 256.99649,476.191275 Z" id="," fill="#4E555A"></path>
        </g>
    </g>
</svg>