<?xml version="1.0" encoding="UTF-8"?>
<svg width="59px" height="33px" viewBox="0 0 59 33" version="1.1" xmlns="http://www.w3.org/2000/svg" xmlns:xlink="http://www.w3.org/1999/xlink">
    <!-- Generator: Sketch 52.4 (67378) - http://www.bohemiancoding.com/sketch -->
    <title>product-title</title>
    <desc>Created with Sketch.</desc>
    <g id="Page-1" stroke="none" stroke-width="1" fill="none" fill-rule="evenodd">
        <g id="Icons" transform="translate(-235.000000, -344.000000)">
            <path d="M269.015829,354.115886 L270.9902,348.831482 C271.176708,348.332296 271.664155,348 272.209908,348 L274.351077,348 C274.709467,348 275,348.282768 275,348.631579 C275,348.98039 274.709467,349.263158 274.351077,349.263158 L273.118955,349.263158 C272.573202,349.263158 272.085754,349.595454 271.899247,350.09464 L269.924876,355.379044 C269.738368,355.87823 269.250921,356.210526 268.705168,356.210526 L261.20651,356.210526 C260.91994,356.210526 260.667299,356.027578 260.584954,355.76043 L259.027538,350.707799 C258.924556,350.373698 259.119352,350.021603 259.462627,349.921373 C259.52312,349.90371 259.585938,349.894737 259.649094,349.894737 L268.287519,349.894737 C268.645909,349.894737 268.936442,350.177504 268.936442,350.526316 C268.936442,350.587784 268.927223,350.648923 268.909075,350.707799 L267.968476,353.759153 C267.878439,354.051257 268.042246,354.361044 268.33435,354.451081 C268.614429,354.537413 268.913252,354.390432 269.015829,354.115886 Z M262.345999,360 C261.450023,360 260.723691,359.293081 260.723691,358.421053 C260.723691,357.549024 261.450023,356.842105 262.345999,356.842105 C263.241975,356.842105 263.968307,357.549024 263.968307,358.421053 C263.968307,359.293081 263.241975,360 262.345999,360 Z M267.537384,360 C266.641408,360 265.915076,359.293081 265.915076,358.421053 C265.915076,357.549024 266.641408,356.842105 267.537384,356.842105 C268.43336,356.842105 269.159692,357.549024 269.159692,358.421053 C269.159692,359.293081 268.43336,360 267.537384,360 Z" id="Combined-Shape" fill="#4E555A"></path>
            <rect id="Rectangle" fill="#60666A" x="254" y="369" width="22" height="2" rx="1"></rect>
            <rect id="Rectangle" fill="#60666A" x="246" y="364" width="38" height="2" rx="1"></rect>
        </g>
    </g>
</svg>