<?xml version="1.0" encoding="UTF-8"?>
<svg width="59px" height="33px" viewBox="0 0 59 33" version="1.1" xmlns="http://www.w3.org/2000/svg" xmlns:xlink="http://www.w3.org/1999/xlink">
    <!-- Generator: Sketch 52.4 (67378) - http://www.bohemiancoding.com/sketch -->
    <title>product-rating</title>
    <desc>Created with Sketch.</desc>
    <g id="Page-1" stroke="none" stroke-width="1" fill="none" fill-rule="evenodd">
        <g id="Icons" transform="translate(-235.000000, -492.000000)" stroke-width="2">
            <path d="M247.534001,512.741526 L244.78357,514.190124 C244.539244,514.318807 244.23686,514.225058 244.108178,513.980731 C244.056818,513.883214 244.039117,513.771459 244.05783,513.662843 L244.585599,510.599387 C244.641567,510.274516 244.533829,509.942932 244.297595,509.713004 L242.069967,507.54483 C241.872082,507.352227 241.8678,507.035673 242.060404,506.837788 C242.137277,506.758807 242.238093,506.707439 242.347175,506.691671 L245.423785,506.246949 C245.750051,506.199787 246.032112,505.994858 246.177787,505.699134 L247.551468,502.910531 C247.673495,502.662814 247.973232,502.560921 248.220949,502.682948 C248.31982,502.731653 248.399828,502.81166 248.448532,502.910531 L249.822213,505.699134 C249.967888,505.994858 250.249949,506.199787 250.576215,506.246949 L253.652825,506.691671 C253.926127,506.731177 254.115656,506.984757 254.07615,507.258059 C254.060383,507.367141 254.009014,507.467957 253.930033,507.54483 L251.702405,509.713004 C251.466171,509.942932 251.358433,510.274516 251.414401,510.599387 L251.94217,513.662843 C251.989053,513.934976 251.806451,514.19359 251.534318,514.240473 C251.425702,514.259185 251.313947,514.241485 251.21643,514.190124 L248.465999,512.741526 C248.174324,512.587907 247.825676,512.587907 247.534001,512.741526 Z" id="Star" stroke="#4E555A" fill="#4E555A"></path>
            <path d="M263.534001,512.741526 L260.78357,514.190124 C260.539244,514.318807 260.23686,514.225058 260.108178,513.980731 C260.056818,513.883214 260.039117,513.771459 260.05783,513.662843 L260.585599,510.599387 C260.641567,510.274516 260.533829,509.942932 260.297595,509.713004 L258.069967,507.54483 C257.872082,507.352227 257.8678,507.035673 258.060404,506.837788 C258.137277,506.758807 258.238093,506.707439 258.347175,506.691671 L261.423785,506.246949 C261.750051,506.199787 262.032112,505.994858 262.177787,505.699134 L263.551468,502.910531 C263.673495,502.662814 263.973232,502.560921 264.220949,502.682948 C264.31982,502.731653 264.399828,502.81166 264.448532,502.910531 L265.822213,505.699134 C265.967888,505.994858 266.249949,506.199787 266.576215,506.246949 L269.652825,506.691671 C269.926127,506.731177 270.115656,506.984757 270.07615,507.258059 C270.060383,507.367141 270.009014,507.467957 269.930033,507.54483 L267.702405,509.713004 C267.466171,509.942932 267.358433,510.274516 267.414401,510.599387 L267.94217,513.662843 C267.989053,513.934976 267.806451,514.19359 267.534318,514.240473 C267.425702,514.259185 267.313947,514.241485 267.21643,514.190124 L264.465999,512.741526 C264.174324,512.587907 263.825676,512.587907 263.534001,512.741526 Z" id="Star" stroke="#4E555A" fill="#4E555A"></path>
            <path d="M279.534001,512.741526 L276.78357,514.190124 C276.539244,514.318807 276.23686,514.225058 276.108178,513.980731 C276.056818,513.883214 276.039117,513.771459 276.05783,513.662843 L276.585599,510.599387 C276.641567,510.274516 276.533829,509.942932 276.297595,509.713004 L274.069967,507.54483 C273.872082,507.352227 273.8678,507.035673 274.060404,506.837788 C274.137277,506.758807 274.238093,506.707439 274.347175,506.691671 L277.423785,506.246949 C277.750051,506.199787 278.032112,505.994858 278.177787,505.699134 L279.551468,502.910531 C279.673495,502.662814 279.973232,502.560921 280.220949,502.682948 C280.31982,502.731653 280.399828,502.81166 280.448532,502.910531 L281.822213,505.699134 C281.967888,505.994858 282.249949,506.199787 282.576215,506.246949 L285.652825,506.691671 C285.926127,506.731177 286.115656,506.984757 286.07615,507.258059 C286.060383,507.367141 286.009014,507.467957 285.930033,507.54483 L283.702405,509.713004 C283.466171,509.942932 283.358433,510.274516 283.414401,510.599387 L283.94217,513.662843 C283.989053,513.934976 283.806451,514.19359 283.534318,514.240473 C283.425702,514.259185 283.313947,514.241485 283.21643,514.190124 L280.465999,512.741526 C280.174324,512.587907 279.825676,512.587907 279.534001,512.741526 Z" id="Star" stroke="#60666A"></path>
        </g>
    </g>
</svg>