<?xml version="1.0" encoding="UTF-8"?>
<svg width="59px" height="33px" viewBox="0 0 59 33" version="1.1" xmlns="http://www.w3.org/2000/svg" xmlns:xlink="http://www.w3.org/1999/xlink">
    <!-- Generator: Sketch 52.4 (67378) - http://www.bohemiancoding.com/sketch -->
    <title>product-rating-blue</title>
    <desc>Created with Sketch.</desc>
    <g id="Page-1" stroke="none" stroke-width="1" fill="none" fill-rule="evenodd">
        <g id="Icons" transform="translate(-365.000000, -492.000000)" stroke-width="2">
            <path d="M377.534001,512.741526 L374.78357,514.190124 C374.539244,514.318807 374.23686,514.225058 374.108178,513.980731 C374.056818,513.883214 374.039117,513.771459 374.05783,513.662843 L374.585599,510.599387 C374.641567,510.274516 374.533829,509.942932 374.297595,509.713004 L372.069967,507.54483 C371.872082,507.352227 371.8678,507.035673 372.060404,506.837788 C372.137277,506.758807 372.238093,506.707439 372.347175,506.691671 L375.423785,506.246949 C375.750051,506.199787 376.032112,505.994858 376.177787,505.699134 L377.551468,502.910531 C377.673495,502.662814 377.973232,502.560921 378.220949,502.682948 C378.31982,502.731653 378.399828,502.81166 378.448532,502.910531 L379.822213,505.699134 C379.967888,505.994858 380.249949,506.199787 380.576215,506.246949 L383.652825,506.691671 C383.926127,506.731177 384.115656,506.984757 384.07615,507.258059 C384.060383,507.367141 384.009014,507.467957 383.930033,507.54483 L381.702405,509.713004 C381.466171,509.942932 381.358433,510.274516 381.414401,510.599387 L381.94217,513.662843 C381.989053,513.934976 381.806451,514.19359 381.534318,514.240473 C381.425702,514.259185 381.313947,514.241485 381.21643,514.190124 L378.465999,512.741526 C378.174324,512.587907 377.825676,512.587907 377.534001,512.741526 Z" id="Star" stroke="#386689" fill="#386689"></path>
            <path d="M393.534001,512.741526 L390.78357,514.190124 C390.539244,514.318807 390.23686,514.225058 390.108178,513.980731 C390.056818,513.883214 390.039117,513.771459 390.05783,513.662843 L390.585599,510.599387 C390.641567,510.274516 390.533829,509.942932 390.297595,509.713004 L388.069967,507.54483 C387.872082,507.352227 387.8678,507.035673 388.060404,506.837788 C388.137277,506.758807 388.238093,506.707439 388.347175,506.691671 L391.423785,506.246949 C391.750051,506.199787 392.032112,505.994858 392.177787,505.699134 L393.551468,502.910531 C393.673495,502.662814 393.973232,502.560921 394.220949,502.682948 C394.31982,502.731653 394.399828,502.81166 394.448532,502.910531 L395.822213,505.699134 C395.967888,505.994858 396.249949,506.199787 396.576215,506.246949 L399.652825,506.691671 C399.926127,506.731177 400.115656,506.984757 400.07615,507.258059 C400.060383,507.367141 400.009014,507.467957 399.930033,507.54483 L397.702405,509.713004 C397.466171,509.942932 397.358433,510.274516 397.414401,510.599387 L397.94217,513.662843 C397.989053,513.934976 397.806451,514.19359 397.534318,514.240473 C397.425702,514.259185 397.313947,514.241485 397.21643,514.190124 L394.465999,512.741526 C394.174324,512.587907 393.825676,512.587907 393.534001,512.741526 Z" id="Star" stroke="#386689" fill="#386689"></path>
            <path d="M409.534001,512.741526 L406.78357,514.190124 C406.539244,514.318807 406.23686,514.225058 406.108178,513.980731 C406.056818,513.883214 406.039117,513.771459 406.05783,513.662843 L406.585599,510.599387 C406.641567,510.274516 406.533829,509.942932 406.297595,509.713004 L404.069967,507.54483 C403.872082,507.352227 403.8678,507.035673 404.060404,506.837788 C404.137277,506.758807 404.238093,506.707439 404.347175,506.691671 L407.423785,506.246949 C407.750051,506.199787 408.032112,505.994858 408.177787,505.699134 L409.551468,502.910531 C409.673495,502.662814 409.973232,502.560921 410.220949,502.682948 C410.31982,502.731653 410.399828,502.81166 410.448532,502.910531 L411.822213,505.699134 C411.967888,505.994858 412.249949,506.199787 412.576215,506.246949 L415.652825,506.691671 C415.926127,506.731177 416.115656,506.984757 416.07615,507.258059 C416.060383,507.367141 416.009014,507.467957 415.930033,507.54483 L413.702405,509.713004 C413.466171,509.942932 413.358433,510.274516 413.414401,510.599387 L413.94217,513.662843 C413.989053,513.934976 413.806451,514.19359 413.534318,514.240473 C413.425702,514.259185 413.313947,514.241485 413.21643,514.190124 L410.465999,512.741526 C410.174324,512.587907 409.825676,512.587907 409.534001,512.741526 Z" id="Star" stroke="#577E9C"></path>
        </g>
    </g>
</svg>