<?xml version="1.0" encoding="UTF-8"?>
<svg width="59px" height="33px" viewBox="0 0 59 33" version="1.1" xmlns="http://www.w3.org/2000/svg" xmlns:xlink="http://www.w3.org/1999/xlink">
    <!-- Generator: Sketch 52.4 (67378) - http://www.bohemiancoding.com/sketch -->
    <title>product-price</title>
    <desc>Created with Sketch.</desc>
    <g id="Page-1" stroke="none" stroke-width="1" fill="none" fill-rule="evenodd">
        <g id="Icons" transform="translate(-235.000000, -418.000000)">
            <path d="M262.258403,438.313146 C262.697479,438.691285 263.413866,438.903988 263.922269,438.903988 C266.186975,438.903988 266.787815,436.375185 266.787815,434.248154 C266.579832,434.93353 265.632353,436.044313 263.506303,436.044313 C261.957983,436.044313 259,434.744461 259,431.175775 C259,428.197932 261.195378,426 264.5,426 C267.342437,426 269.607143,428.576071 269.930672,431.861152 C269.976891,432.381093 270,432.948301 270,433.51551 C270,437.485968 268.844538,442 264.060924,442 C262.697479,442 261.12605,441.763663 260.109244,440.487445 C259.831933,440.156573 259.693277,439.754801 259.693277,439.376662 C259.693277,438.644018 260.340336,437.88774 261.12605,437.88774 C261.518908,437.88774 261.934874,438.053176 262.258403,438.313146 Z M262,431 C262,432.093023 262.906977,433 264,433 C265.093023,433 266,432.093023 266,431 C266,429.906977 265.093023,429 264,429 C262.906977,429 262,429.906977 262,431 Z M275.258403,438.313146 C275.697479,438.691285 276.413866,438.903988 276.922269,438.903988 C279.186975,438.903988 279.787815,436.375185 279.787815,434.248154 C279.579832,434.93353 278.632353,436.044313 276.506303,436.044313 C274.957983,436.044313 272,434.744461 272,431.175775 C272,428.197932 274.195378,426 277.5,426 C280.342437,426 282.607143,428.576071 282.930672,431.861152 C282.976891,432.381093 283,432.948301 283,433.51551 C283,437.485968 281.844538,442 277.060924,442 C275.697479,442 274.12605,441.763663 273.109244,440.487445 C272.831933,440.156573 272.693277,439.754801 272.693277,439.376662 C272.693277,438.644018 273.340336,437.88774 274.12605,437.88774 C274.518908,437.88774 274.934874,438.053176 275.258403,438.313146 Z M275,431 C275,432.093023 275.906977,433 277,433 C278.093023,433 279,432.093023 279,431 C279,429.906977 278.093023,429 277,429 C275.906977,429 275,429.906977 275,431 Z" id="99" fill="#60666A"></path>
            <path d="M251.297505,430.799065 C252.940499,431.011682 253.785029,431.714953 253.785029,432.712617 C253.785029,433.61215 252.863724,434.315421 252.802303,434.25 C252.126679,433.595794 251.143954,433.154206 250.268714,433.154206 C249.424184,433.154206 249.040307,433.432243 249.040307,433.922897 C249.040307,434.478972 249.761996,434.609813 250.729367,434.838785 C252.034549,435.116822 254,435.721963 254,437.880841 C254,439.598131 253.047985,440.71028 251.28215,441.070093 L251.28215,441.478972 C251.28215,442.476636 250.928983,443 250.084453,443 L250.007678,443 C249.132438,443 248.809981,442.509346 248.809981,441.478972 L248.809981,441.151869 C246.982726,440.939252 246,440.170561 246,439.123832 C246,438.273364 246.859885,437.586449 246.921305,437.668224 C247.550864,438.257009 248.733205,438.796729 249.746641,438.796729 C250.621881,438.796729 251.021113,438.535047 251.021113,438.028037 C251.021113,437.455607 250.299424,437.308411 249.393474,437.095794 C248.134357,436.817757 246.214971,436.261682 246.214971,434.004673 C246.214971,432.369159 247.166987,431.257009 248.825336,430.880841 L248.825336,430.521028 C248.825336,429.523364 249.178503,429 250.023033,429 L250.099808,429 C250.975048,429 251.297505,429.490654 251.297505,430.521028 L251.297505,430.799065 Z" id="$" fill="#4E555A"></path>
        </g>
    </g>
</svg>