<?xml version="1.0" encoding="UTF-8"?>
<svg width="59px" height="33px" viewBox="0 0 59 33" version="1.1" xmlns="http://www.w3.org/2000/svg" xmlns:xlink="http://www.w3.org/1999/xlink">
    <!-- Generator: Sketch 52.4 (67378) - http://www.bohemiancoding.com/sketch -->
    <title>product-cart-button-blue</title>
    <desc>Created with Sketch.</desc>
    <g id="Page-1" stroke="none" stroke-width="1" fill="none" fill-rule="evenodd">
        <g id="Icons" transform="translate(-428.000000, -418.000000)">
            <path d="M438,428 L449,428 L449,440 L438,440 C436.895431,440 436,439.104569 436,438 L436,430 C436,428.895431 436.895431,428 438,428 Z" id="Rectangle-3" fill="#386689"></path>
            <path d="M450,428 L477,428 C478.104569,428 479,428.895431 479,430 L479,438 C479,439.104569 478.104569,440 477,440 L450,440 L450,428 Z" id="Rectangle-3" fill="#386689"></path>
            <rect id="Rectangle" fill="#577E9C" x="455" y="433" width="19" height="2" rx="1"></rect>
            <path d="M444.007914,434.057943 L444.9951,431.415741 C445.088354,431.166148 445.332078,431 445.604954,431 L446.675538,431 C446.854734,431 447,431.141384 447,431.315789 C447,431.490195 446.854734,431.631579 446.675538,431.631579 L446.059477,431.631579 C445.786601,431.631579 445.542877,431.797727 445.449624,432.04732 L444.462438,434.689522 C444.369184,434.939115 444.12546,435.105263 443.852584,435.105263 L440.103255,435.105263 C439.95997,435.105263 439.83365,435.013789 439.792477,434.880215 L439.013769,432.353899 C438.962278,432.186849 439.059676,432.010802 439.231314,431.960686 C439.26156,431.951855 439.292969,431.947368 439.324547,431.947368 L443.64376,431.947368 C443.822955,431.947368 443.968221,432.088752 443.968221,432.263158 C443.968221,432.293892 443.963611,432.324461 443.954537,432.353899 L443.484263,433.879585 C443.439246,434.02563 443.521146,434.180516 443.667191,434.225533 C443.807224,434.268696 443.956628,434.19521 444.007914,434.057943 Z M440.672999,437 C440.225011,437 439.861845,436.646541 439.861845,436.210526 C439.861845,435.774512 440.225011,435.421053 440.672999,435.421053 C441.120987,435.421053 441.484153,435.774512 441.484153,436.210526 C441.484153,436.646541 441.120987,437 440.672999,437 Z M443.268692,437 C442.820704,437 442.457538,436.646541 442.457538,436.210526 C442.457538,435.774512 442.820704,435.421053 443.268692,435.421053 C443.71668,435.421053 444.079846,435.774512 444.079846,436.210526 C444.079846,436.646541 443.71668,437 443.268692,437 Z" id="Combined-Shape" fill="#577E9C"></path>
        </g>
    </g>
</svg>