<?xml version="1.0" encoding="UTF-8"?>
<svg width="59px" height="33px" viewBox="0 0 59 33" version="1.1" xmlns="http://www.w3.org/2000/svg" xmlns:xlink="http://www.w3.org/1999/xlink">
    <!-- Generator: Sketch 52.4 (67378) - http://www.bohemiancoding.com/sketch -->
    <title>product-images</title>
    <desc>Created with Sketch.</desc>
    <g id="Page-1" stroke="none" stroke-width="1" fill="none" fill-rule="evenodd">
        <g id="Icons" transform="translate(-298.000000, -381.000000)">
            <rect id="Rectangle-17" fill="#4E555A" x="308" y="385" width="25" height="25" rx="2"></rect>
            <path d="M323.015829,397.115886 L324.9902,391.831482 C325.176708,391.332296 325.664155,391 326.209908,391 L328.351077,391 C328.709467,391 329,391.282768 329,391.631579 C329,391.98039 328.709467,392.263158 328.351077,392.263158 L327.118955,392.263158 C326.573202,392.263158 326.085754,392.595454 325.899247,393.09464 L323.924876,398.379044 C323.738368,398.87823 323.250921,399.210526 322.705168,399.210526 L315.20651,399.210526 C314.91994,399.210526 314.667299,399.027578 314.584954,398.76043 L313.027538,393.707799 C312.924556,393.373698 313.119352,393.021603 313.462627,392.921373 C313.52312,392.90371 313.585938,392.894737 313.649094,392.894737 L322.287519,392.894737 C322.645909,392.894737 322.936442,393.177504 322.936442,393.526316 C322.936442,393.587784 322.927223,393.648923 322.909075,393.707799 L321.968476,396.759153 C321.878439,397.051257 322.042246,397.361044 322.33435,397.451081 C322.614429,397.537413 322.913252,397.390432 323.015829,397.115886 Z M316.345999,403 C315.450023,403 314.723691,402.293081 314.723691,401.421053 C314.723691,400.549024 315.450023,399.842105 316.345999,399.842105 C317.241975,399.842105 317.968307,400.549024 317.968307,401.421053 C317.968307,402.293081 317.241975,403 316.345999,403 Z M321.537384,403 C320.641408,403 319.915076,402.293081 319.915076,401.421053 C319.915076,400.549024 320.641408,399.842105 321.537384,399.842105 C322.43336,399.842105 323.159692,400.549024 323.159692,401.421053 C323.159692,402.293081 322.43336,403 321.537384,403 Z" id="Combined-Shape" fill="#60666A"></path>
            <rect id="Rectangle-17" fill="#60666A" x="334" y="385" width="13" height="12" rx="2"></rect>
            <path d="M342.007914,391.057943 L342.9951,388.415741 C343.088354,388.166148 343.332078,388 343.604954,388 L344.675538,388 C344.854734,388 345,388.141384 345,388.315789 C345,388.490195 344.854734,388.631579 344.675538,388.631579 L344.059477,388.631579 C343.786601,388.631579 343.542877,388.797727 343.449624,389.04732 L342.462438,391.689522 C342.369184,391.939115 342.12546,392.105263 341.852584,392.105263 L338.103255,392.105263 C337.95997,392.105263 337.83365,392.013789 337.792477,391.880215 L337.013769,389.353899 C336.962278,389.186849 337.059676,389.010802 337.231314,388.960686 C337.26156,388.951855 337.292969,388.947368 337.324547,388.947368 L341.64376,388.947368 C341.822955,388.947368 341.968221,389.088752 341.968221,389.263158 C341.968221,389.293892 341.963611,389.324461 341.954537,389.353899 L341.484263,390.879585 C341.439246,391.02563 341.521146,391.180516 341.667191,391.225533 C341.807224,391.268696 341.956628,391.19521 342.007914,391.057943 Z M338.672999,394 C338.225011,394 337.861845,393.646541 337.861845,393.210526 C337.861845,392.774512 338.225011,392.421053 338.672999,392.421053 C339.120987,392.421053 339.484153,392.774512 339.484153,393.210526 C339.484153,393.646541 339.120987,394 338.672999,394 Z M341.268692,394 C340.820704,394 340.457538,393.646541 340.457538,393.210526 C340.457538,392.774512 340.820704,392.421053 341.268692,392.421053 C341.71668,392.421053 342.079846,392.774512 342.079846,393.210526 C342.079846,393.646541 341.71668,394 341.268692,394 Z" id="Combined-Shape" fill="#4E555A"></path>
            <rect id="Rectangle-17" fill="#4E555A" x="334" y="398" width="13" height="12" rx="2"></rect>
            <path d="M342.007914,404.057943 L342.9951,401.415741 C343.088354,401.166148 343.332078,401 343.604954,401 L344.675538,401 C344.854734,401 345,401.141384 345,401.315789 C345,401.490195 344.854734,401.631579 344.675538,401.631579 L344.059477,401.631579 C343.786601,401.631579 343.542877,401.797727 343.449624,402.04732 L342.462438,404.689522 C342.369184,404.939115 342.12546,405.105263 341.852584,405.105263 L338.103255,405.105263 C337.95997,405.105263 337.83365,405.013789 337.792477,404.880215 L337.013769,402.353899 C336.962278,402.186849 337.059676,402.010802 337.231314,401.960686 C337.26156,401.951855 337.292969,401.947368 337.324547,401.947368 L341.64376,401.947368 C341.822955,401.947368 341.968221,402.088752 341.968221,402.263158 C341.968221,402.293892 341.963611,402.324461 341.954537,402.353899 L341.484263,403.879585 C341.439246,404.02563 341.521146,404.180516 341.667191,404.225533 C341.807224,404.268696 341.956628,404.19521 342.007914,404.057943 Z M338.672999,407 C338.225011,407 337.861845,406.646541 337.861845,406.210526 C337.861845,405.774512 338.225011,405.421053 338.672999,405.421053 C339.120987,405.421053 339.484153,405.774512 339.484153,406.210526 C339.484153,406.646541 339.120987,407 338.672999,407 Z M341.268692,407 C340.820704,407 340.457538,406.646541 340.457538,406.210526 C340.457538,405.774512 340.820704,405.421053 341.268692,405.421053 C341.71668,405.421053 342.079846,405.774512 342.079846,406.210526 C342.079846,406.646541 341.71668,407 341.268692,407 Z" id="Combined-Shape" fill="#60666A"></path>
        </g>
    </g>
</svg>