<?xml version="1.0" encoding="UTF-8"?>
<svg width="59px" height="33px" viewBox="0 0 59 33" version="1.1" xmlns="http://www.w3.org/2000/svg" xmlns:xlink="http://www.w3.org/1999/xlink">
    <!-- Generator: Sketch 52.4 (67378) - http://www.bohemiancoding.com/sketch -->
    <title>product-price-blue</title>
    <desc>Created with Sketch.</desc>
    <g id="Page-1" stroke="none" stroke-width="1" fill="none" fill-rule="evenodd">
        <g id="Icons" transform="translate(-365.000000, -418.000000)">
            <path d="M392.258403,438.313146 C392.697479,438.691285 393.413866,438.903988 393.922269,438.903988 C396.186975,438.903988 396.787815,436.375185 396.787815,434.248154 C396.579832,434.93353 395.632353,436.044313 393.506303,436.044313 C391.957983,436.044313 389,434.744461 389,431.175775 C389,428.197932 391.195378,426 394.5,426 C397.342437,426 399.607143,428.576071 399.930672,431.861152 C399.976891,432.381093 400,432.948301 400,433.51551 C400,437.485968 398.844538,442 394.060924,442 C392.697479,442 391.12605,441.763663 390.109244,440.487445 C389.831933,440.156573 389.693277,439.754801 389.693277,439.376662 C389.693277,438.644018 390.340336,437.88774 391.12605,437.88774 C391.518908,437.88774 391.934874,438.053176 392.258403,438.313146 Z M392,431 C392,432.093023 392.906977,433 394,433 C395.093023,433 396,432.093023 396,431 C396,429.906977 395.093023,429 394,429 C392.906977,429 392,429.906977 392,431 Z M405.258403,438.313146 C405.697479,438.691285 406.413866,438.903988 406.922269,438.903988 C409.186975,438.903988 409.787815,436.375185 409.787815,434.248154 C409.579832,434.93353 408.632353,436.044313 406.506303,436.044313 C404.957983,436.044313 402,434.744461 402,431.175775 C402,428.197932 404.195378,426 407.5,426 C410.342437,426 412.607143,428.576071 412.930672,431.861152 C412.976891,432.381093 413,432.948301 413,433.51551 C413,437.485968 411.844538,442 407.060924,442 C405.697479,442 404.12605,441.763663 403.109244,440.487445 C402.831933,440.156573 402.693277,439.754801 402.693277,439.376662 C402.693277,438.644018 403.340336,437.88774 404.12605,437.88774 C404.518908,437.88774 404.934874,438.053176 405.258403,438.313146 Z M405,431 C405,432.093023 405.906977,433 407,433 C408.093023,433 409,432.093023 409,431 C409,429.906977 408.093023,429 407,429 C405.906977,429 405,429.906977 405,431 Z" id="99" fill="#577E9C"></path>
            <path d="M381.297505,430.799065 C382.940499,431.011682 383.785029,431.714953 383.785029,432.712617 C383.785029,433.61215 382.863724,434.315421 382.802303,434.25 C382.126679,433.595794 381.143954,433.154206 380.268714,433.154206 C379.424184,433.154206 379.040307,433.432243 379.040307,433.922897 C379.040307,434.478972 379.761996,434.609813 380.729367,434.838785 C382.034549,435.116822 384,435.721963 384,437.880841 C384,439.598131 383.047985,440.71028 381.28215,441.070093 L381.28215,441.478972 C381.28215,442.476636 380.928983,443 380.084453,443 L380.007678,443 C379.132438,443 378.809981,442.509346 378.809981,441.478972 L378.809981,441.151869 C376.982726,440.939252 376,440.170561 376,439.123832 C376,438.273364 376.859885,437.586449 376.921305,437.668224 C377.550864,438.257009 378.733205,438.796729 379.746641,438.796729 C380.621881,438.796729 381.021113,438.535047 381.021113,438.028037 C381.021113,437.455607 380.299424,437.308411 379.393474,437.095794 C378.134357,436.817757 376.214971,436.261682 376.214971,434.004673 C376.214971,432.369159 377.166987,431.257009 378.825336,430.880841 L378.825336,430.521028 C378.825336,429.523364 379.178503,429 380.023033,429 L380.099808,429 C380.975048,429 381.297505,429.490654 381.297505,430.521028 L381.297505,430.799065 Z" id="$" fill="#386689"></path>
        </g>
    </g>
</svg>