<?xml version="1.0" encoding="UTF-8"?>
<svg width="59px" height="33px" viewBox="0 0 59 33" version="1.1" xmlns="http://www.w3.org/2000/svg" xmlns:xlink="http://www.w3.org/1999/xlink">
    <!-- Generator: Sketch 52.4 (67378) - http://www.bohemiancoding.com/sketch -->
    <title>product-info-blue</title>
    <desc>Created with Sketch.</desc>
    <g id="Page-1" stroke="none" stroke-width="1" fill="none" fill-rule="evenodd">
        <g id="Icons" transform="translate(-365.000000, -455.000000)">
            <rect id="Rectangle" fill="#577E9C" x="371" y="465" width="10" height="2" rx="1"></rect>
            <rect id="Rectangle" fill="#577E9C" x="389" y="465" width="10" height="2" rx="1"></rect>
            <rect id="Rectangle" fill="#577E9C" x="407" y="465" width="10" height="2" rx="1"></rect>
            <path d="M386.99649,466.191275 C386.901336,467.416107 385.550142,470 383.799298,470 C383.41868,470 383,469.865772 383,469.530201 C383,469.379195 383.057093,469.194631 383.171278,469.043624 C383.970576,467.986577 384.294102,467.365772 384.294102,466.090604 C384.294102,465.469799 384.941153,465 385.607234,465 C386.406532,465 387.053583,465.520134 386.99649,466.191275 Z" id="," fill="#386689"></path>
            <path d="M404.99649,466.191275 C404.901336,467.416107 403.550142,470 401.799298,470 C401.41868,470 401,469.865772 401,469.530201 C401,469.379195 401.057093,469.194631 401.171278,469.043624 C401.970576,467.986577 402.294102,467.365772 402.294102,466.090604 C402.294102,465.469799 402.941153,465 403.607234,465 C404.406532,465 405.053583,465.520134 404.99649,466.191275 Z" id="," fill="#386689"></path>
            <rect id="Rectangle" fill="#577E9C" x="371" y="475" width="10" height="2" rx="1"></rect>
            <rect id="Rectangle" fill="#577E9C" x="389" y="475" width="10" height="2" rx="1"></rect>
            <path d="M386.99649,476.191275 C386.901336,477.416107 385.550142,480 383.799298,480 C383.41868,480 383,479.865772 383,479.530201 C383,479.379195 383.057093,479.194631 383.171278,479.043624 C383.970576,477.986577 384.294102,477.365772 384.294102,476.090604 C384.294102,475.469799 384.941153,475 385.607234,475 C386.406532,475 387.053583,475.520134 386.99649,476.191275 Z" id="," fill="#386689"></path>
        </g>
    </g>
</svg>