<?xml version="1.0" encoding="UTF-8"?>
<svg width="59px" height="33px" viewBox="0 0 59 33" version="1.1" xmlns="http://www.w3.org/2000/svg" xmlns:xlink="http://www.w3.org/1999/xlink">
    <!-- Generator: Sketch 52.4 (67378) - http://www.bohemiancoding.com/sketch -->
    <title>product-upsells-blue</title>
    <desc>Created with Sketch.</desc>
    <g id="Page-1" stroke="none" stroke-width="1" fill="none" fill-rule="evenodd">
        <g id="Icons" transform="translate(-365.000000, -529.000000)">
            <rect id="Rectangle" fill="#577E9C" x="382" y="534" width="25" height="2" rx="1"></rect>
            <rect id="Rectangle" fill="#577E9C" x="385" y="538" width="19" height="2" rx="1"></rect>
            <rect id="Rectangle-17" fill="#386689" x="371" y="544" width="13" height="12" rx="2"></rect>
            <rect id="Rectangle-17" fill="#386689" x="405" y="544" width="13" height="12" rx="2"></rect>
            <rect id="Rectangle-17" fill="#386689" x="388" y="544" width="13" height="12" rx="2"></rect>
            <path d="M396.007914,550.057943 L396.9951,547.415741 C397.088354,547.166148 397.332078,547 397.604954,547 L398.675538,547 C398.854734,547 399,547.141384 399,547.315789 C399,547.490195 398.854734,547.631579 398.675538,547.631579 L398.059477,547.631579 C397.786601,547.631579 397.542877,547.797727 397.449624,548.04732 L396.462438,550.689522 C396.369184,550.939115 396.12546,551.105263 395.852584,551.105263 L392.103255,551.105263 C391.95997,551.105263 391.83365,551.013789 391.792477,550.880215 L391.013769,548.353899 C390.962278,548.186849 391.059676,548.010802 391.231314,547.960686 C391.26156,547.951855 391.292969,547.947368 391.324547,547.947368 L395.64376,547.947368 C395.822955,547.947368 395.968221,548.088752 395.968221,548.263158 C395.968221,548.293892 395.963611,548.324461 395.954537,548.353899 L395.484263,549.879585 C395.439246,550.02563 395.521146,550.180516 395.667191,550.225533 C395.807224,550.268696 395.956628,550.19521 396.007914,550.057943 Z M392.672999,553 C392.225011,553 391.861845,552.646541 391.861845,552.210526 C391.861845,551.774512 392.225011,551.421053 392.672999,551.421053 C393.120987,551.421053 393.484153,551.774512 393.484153,552.210526 C393.484153,552.646541 393.120987,553 392.672999,553 Z M395.268692,553 C394.820704,553 394.457538,552.646541 394.457538,552.210526 C394.457538,551.774512 394.820704,551.421053 395.268692,551.421053 C395.71668,551.421053 396.079846,551.774512 396.079846,552.210526 C396.079846,552.646541 395.71668,553 395.268692,553 Z" id="Combined-Shape" fill="#577E9C"></path>
            <path d="M413.007914,550.057943 L413.9951,547.415741 C414.088354,547.166148 414.332078,547 414.604954,547 L415.675538,547 C415.854734,547 416,547.141384 416,547.315789 C416,547.490195 415.854734,547.631579 415.675538,547.631579 L415.059477,547.631579 C414.786601,547.631579 414.542877,547.797727 414.449624,548.04732 L413.462438,550.689522 C413.369184,550.939115 413.12546,551.105263 412.852584,551.105263 L409.103255,551.105263 C408.95997,551.105263 408.83365,551.013789 408.792477,550.880215 L408.013769,548.353899 C407.962278,548.186849 408.059676,548.010802 408.231314,547.960686 C408.26156,547.951855 408.292969,547.947368 408.324547,547.947368 L412.64376,547.947368 C412.822955,547.947368 412.968221,548.088752 412.968221,548.263158 C412.968221,548.293892 412.963611,548.324461 412.954537,548.353899 L412.484263,549.879585 C412.439246,550.02563 412.521146,550.180516 412.667191,550.225533 C412.807224,550.268696 412.956628,550.19521 413.007914,550.057943 Z M409.672999,553 C409.225011,553 408.861845,552.646541 408.861845,552.210526 C408.861845,551.774512 409.225011,551.421053 409.672999,551.421053 C410.120987,551.421053 410.484153,551.774512 410.484153,552.210526 C410.484153,552.646541 410.120987,553 409.672999,553 Z M412.268692,553 C411.820704,553 411.457538,552.646541 411.457538,552.210526 C411.457538,551.774512 411.820704,551.421053 412.268692,551.421053 C412.71668,551.421053 413.079846,551.774512 413.079846,552.210526 C413.079846,552.646541 412.71668,553 412.268692,553 Z" id="Combined-Shape" fill="#577E9C"></path>
            <path d="M379.007914,550.057943 L379.9951,547.415741 C380.088354,547.166148 380.332078,547 380.604954,547 L381.675538,547 C381.854734,547 382,547.141384 382,547.315789 C382,547.490195 381.854734,547.631579 381.675538,547.631579 L381.059477,547.631579 C380.786601,547.631579 380.542877,547.797727 380.449624,548.04732 L379.462438,550.689522 C379.369184,550.939115 379.12546,551.105263 378.852584,551.105263 L375.103255,551.105263 C374.95997,551.105263 374.83365,551.013789 374.792477,550.880215 L374.013769,548.353899 C373.962278,548.186849 374.059676,548.010802 374.231314,547.960686 C374.26156,547.951855 374.292969,547.947368 374.324547,547.947368 L378.64376,547.947368 C378.822955,547.947368 378.968221,548.088752 378.968221,548.263158 C378.968221,548.293892 378.963611,548.324461 378.954537,548.353899 L378.484263,549.879585 C378.439246,550.02563 378.521146,550.180516 378.667191,550.225533 C378.807224,550.268696 378.956628,550.19521 379.007914,550.057943 Z M375.672999,553 C375.225011,553 374.861845,552.646541 374.861845,552.210526 C374.861845,551.774512 375.225011,551.421053 375.672999,551.421053 C376.120987,551.421053 376.484153,551.774512 376.484153,552.210526 C376.484153,552.646541 376.120987,553 375.672999,553 Z M378.268692,553 C377.820704,553 377.457538,552.646541 377.457538,552.210526 C377.457538,551.774512 377.820704,551.421053 378.268692,551.421053 C378.71668,551.421053 379.079846,551.774512 379.079846,552.210526 C379.079846,552.646541 378.71668,553 378.268692,553 Z" id="Combined-Shape" fill="#577E9C"></path>
        </g>
    </g>
</svg>