<?xml version="1.0" encoding="UTF-8"?>
<svg width="59px" height="33px" viewBox="0 0 59 33" version="1.1" xmlns="http://www.w3.org/2000/svg" xmlns:xlink="http://www.w3.org/1999/xlink">
    <!-- Generator: Sketch 52.4 (67378) - http://www.bohemiancoding.com/sketch -->
    <title>product-builder-blue</title>
    <desc>Created with Sketch.</desc>
    <g id="Page-1" stroke="none" stroke-width="1" fill="none" fill-rule="evenodd">
        <g id="Icons" transform="translate(-428.000000, -307.000000)">
            <rect id="Rectangle" fill="#577E9C" x="461" y="317" width="22" height="2" rx="1"></rect>
            <rect id="Rectangle" fill="#577E9C" x="461" y="322" width="14" height="2" rx="1"></rect>
            <rect id="Rectangle-3" fill="#386689" x="461" y="327" width="22" height="8" rx="2"></rect>
            <rect id="Rectangle" fill="#577E9C" x="464" y="330" width="16" height="2" rx="1"></rect>
            <rect id="Rectangle-17" fill="#386689" x="432" y="311" width="25" height="25" rx="2"></rect>
            <path d="M447.015829,323.115886 L448.9902,317.831482 C449.176708,317.332296 449.664155,317 450.209908,317 L452.351077,317 C452.709467,317 453,317.282768 453,317.631579 C453,317.98039 452.709467,318.263158 452.351077,318.263158 L451.118955,318.263158 C450.573202,318.263158 450.085754,318.595454 449.899247,319.09464 L447.924876,324.379044 C447.738368,324.87823 447.250921,325.210526 446.705168,325.210526 L439.20651,325.210526 C438.91994,325.210526 438.667299,325.027578 438.584954,324.76043 L437.027538,319.707799 C436.924556,319.373698 437.119352,319.021603 437.462627,318.921373 C437.52312,318.90371 437.585938,318.894737 437.649094,318.894737 L446.287519,318.894737 C446.645909,318.894737 446.936442,319.177504 446.936442,319.526316 C446.936442,319.587784 446.927223,319.648923 446.909075,319.707799 L445.968476,322.759153 C445.878439,323.051257 446.042246,323.361044 446.33435,323.451081 C446.614429,323.537413 446.913252,323.390432 447.015829,323.115886 Z M440.345999,329 C439.450023,329 438.723691,328.293081 438.723691,327.421053 C438.723691,326.549024 439.450023,325.842105 440.345999,325.842105 C441.241975,325.842105 441.968307,326.549024 441.968307,327.421053 C441.968307,328.293081 441.241975,329 440.345999,329 Z M445.537384,329 C444.641408,329 443.915076,328.293081 443.915076,327.421053 C443.915076,326.549024 444.641408,325.842105 445.537384,325.842105 C446.43336,325.842105 447.159692,326.549024 447.159692,327.421053 C447.159692,328.293081 446.43336,329 445.537384,329 Z" id="Combined-Shape" fill="#577E9C"></path>
            <rect id="Rectangle" fill="#577E9C" x="461" y="312" width="22" height="2" rx="1"></rect>
        </g>
    </g>
</svg>