<?xml version="1.0" encoding="UTF-8"?>
<svg width="59px" height="33px" viewBox="0 0 59 33" version="1.1" xmlns="http://www.w3.org/2000/svg" xmlns:xlink="http://www.w3.org/1999/xlink">
    <!-- Generator: Sketch 52.4 (67378) - http://www.bohemiancoding.com/sketch -->
    <title>product-related</title>
    <desc>Created with Sketch.</desc>
    <g id="Page-1" stroke="none" stroke-width="1" fill="none" fill-rule="evenodd">
        <g id="Icons" transform="translate(-298.000000, -529.000000)">
            <rect id="Rectangle" fill="#60666A" x="304" y="534" width="25" height="2" rx="1"></rect>
            <rect id="Rectangle" fill="#60666A" x="304" y="538" width="16" height="2" rx="1"></rect>
            <rect id="Rectangle-17" fill="#4E555A" x="304" y="544" width="13" height="12" rx="2"></rect>
            <rect id="Rectangle-17" fill="#4E555A" x="321" y="544" width="13" height="12" rx="2"></rect>
            <path d="M329.007914,550.057943 L329.9951,547.415741 C330.088354,547.166148 330.332078,547 330.604954,547 L331.675538,547 C331.854734,547 332,547.141384 332,547.315789 C332,547.490195 331.854734,547.631579 331.675538,547.631579 L331.059477,547.631579 C330.786601,547.631579 330.542877,547.797727 330.449624,548.04732 L329.462438,550.689522 C329.369184,550.939115 329.12546,551.105263 328.852584,551.105263 L325.103255,551.105263 C324.95997,551.105263 324.83365,551.013789 324.792477,550.880215 L324.013769,548.353899 C323.962278,548.186849 324.059676,548.010802 324.231314,547.960686 C324.26156,547.951855 324.292969,547.947368 324.324547,547.947368 L328.64376,547.947368 C328.822955,547.947368 328.968221,548.088752 328.968221,548.263158 C328.968221,548.293892 328.963611,548.324461 328.954537,548.353899 L328.484263,549.879585 C328.439246,550.02563 328.521146,550.180516 328.667191,550.225533 C328.807224,550.268696 328.956628,550.19521 329.007914,550.057943 Z M325.672999,553 C325.225011,553 324.861845,552.646541 324.861845,552.210526 C324.861845,551.774512 325.225011,551.421053 325.672999,551.421053 C326.120987,551.421053 326.484153,551.774512 326.484153,552.210526 C326.484153,552.646541 326.120987,553 325.672999,553 Z M328.268692,553 C327.820704,553 327.457538,552.646541 327.457538,552.210526 C327.457538,551.774512 327.820704,551.421053 328.268692,551.421053 C328.71668,551.421053 329.079846,551.774512 329.079846,552.210526 C329.079846,552.646541 328.71668,553 328.268692,553 Z" id="Combined-Shape" fill="#60666A"></path>
            <rect id="Rectangle-17" fill="#4E555A" x="338" y="544" width="13" height="12" rx="2"></rect>
            <path d="M346.007914,550.057943 L346.9951,547.415741 C347.088354,547.166148 347.332078,547 347.604954,547 L348.675538,547 C348.854734,547 349,547.141384 349,547.315789 C349,547.490195 348.854734,547.631579 348.675538,547.631579 L348.059477,547.631579 C347.786601,547.631579 347.542877,547.797727 347.449624,548.04732 L346.462438,550.689522 C346.369184,550.939115 346.12546,551.105263 345.852584,551.105263 L342.103255,551.105263 C341.95997,551.105263 341.83365,551.013789 341.792477,550.880215 L341.013769,548.353899 C340.962278,548.186849 341.059676,548.010802 341.231314,547.960686 C341.26156,547.951855 341.292969,547.947368 341.324547,547.947368 L345.64376,547.947368 C345.822955,547.947368 345.968221,548.088752 345.968221,548.263158 C345.968221,548.293892 345.963611,548.324461 345.954537,548.353899 L345.484263,549.879585 C345.439246,550.02563 345.521146,550.180516 345.667191,550.225533 C345.807224,550.268696 345.956628,550.19521 346.007914,550.057943 Z M342.672999,553 C342.225011,553 341.861845,552.646541 341.861845,552.210526 C341.861845,551.774512 342.225011,551.421053 342.672999,551.421053 C343.120987,551.421053 343.484153,551.774512 343.484153,552.210526 C343.484153,552.646541 343.120987,553 342.672999,553 Z M345.268692,553 C344.820704,553 344.457538,552.646541 344.457538,552.210526 C344.457538,551.774512 344.820704,551.421053 345.268692,551.421053 C345.71668,551.421053 346.079846,551.774512 346.079846,552.210526 C346.079846,552.646541 345.71668,553 345.268692,553 Z" id="Combined-Shape" fill="#60666A"></path>
            <path d="M312.007914,550.057943 L312.9951,547.415741 C313.088354,547.166148 313.332078,547 313.604954,547 L314.675538,547 C314.854734,547 315,547.141384 315,547.315789 C315,547.490195 314.854734,547.631579 314.675538,547.631579 L314.059477,547.631579 C313.786601,547.631579 313.542877,547.797727 313.449624,548.04732 L312.462438,550.689522 C312.369184,550.939115 312.12546,551.105263 311.852584,551.105263 L308.103255,551.105263 C307.95997,551.105263 307.83365,551.013789 307.792477,550.880215 L307.013769,548.353899 C306.962278,548.186849 307.059676,548.010802 307.231314,547.960686 C307.26156,547.951855 307.292969,547.947368 307.324547,547.947368 L311.64376,547.947368 C311.822955,547.947368 311.968221,548.088752 311.968221,548.263158 C311.968221,548.293892 311.963611,548.324461 311.954537,548.353899 L311.484263,549.879585 C311.439246,550.02563 311.521146,550.180516 311.667191,550.225533 C311.807224,550.268696 311.956628,550.19521 312.007914,550.057943 Z M308.672999,553 C308.225011,553 307.861845,552.646541 307.861845,552.210526 C307.861845,551.774512 308.225011,551.421053 308.672999,551.421053 C309.120987,551.421053 309.484153,551.774512 309.484153,552.210526 C309.484153,552.646541 309.120987,553 308.672999,553 Z M311.268692,553 C310.820704,553 310.457538,552.646541 310.457538,552.210526 C310.457538,551.774512 310.820704,551.421053 311.268692,551.421053 C311.71668,551.421053 312.079846,551.774512 312.079846,552.210526 C312.079846,552.646541 311.71668,553 311.268692,553 Z" id="Combined-Shape" fill="#60666A"></path>
        </g>
    </g>
</svg>