<?xml version="1.0" encoding="UTF-8"?>
<svg width="59px" height="33px" viewBox="0 0 59 33" version="1.1" xmlns="http://www.w3.org/2000/svg" xmlns:xlink="http://www.w3.org/1999/xlink">
    <!-- Generator: Sketch 52.4 (67378) - http://www.bohemiancoding.com/sketch -->
    <title>product-meta</title>
    <desc>Created with Sketch.</desc>
    <g id="Page-1" stroke="none" stroke-width="1" fill="none" fill-rule="evenodd">
        <g id="Icons" transform="translate(-298.000000, -455.000000)">
            <path d="M312,461 L334.505257,461 C336.102151,461 337.633165,461.636581 338.759297,462.768789 L344.025936,468.063845 C345.583825,469.630139 345.577011,472.16279 344.010717,473.720679 C343.960723,473.770404 343.909423,473.8188 343.85687,473.865813 L338.708306,478.471742 C337.608206,479.455896 336.183934,480 334.707865,480 L312,480 C310.895431,480 310,479.104569 310,478 L310,463 C310,461.895431 310.895431,461 312,461 Z M340,473 C341.104569,473 342,472.104569 342,471 C342,469.895431 341.104569,469 340,469 C338.895431,469 338,469.895431 338,471 C338,472.104569 338.895431,473 340,473 Z" id="Shape" fill="#4E555A" transform="translate(327.594955, 470.500000) rotate(-15.000000) translate(-327.594955, -470.500000) "></path>
            <path d="M326.085634,471.484523 L328.060006,466.055001 C328.246513,465.542106 328.73396,465.200685 329.279713,465.200685 L331.420882,465.200685 C331.779273,465.200685 332.069805,465.491217 332.069805,465.849608 C332.069805,466.207998 331.779273,466.498531 331.420882,466.498531 L330.18876,466.498531 C329.643007,466.498531 329.15556,466.839952 328.969053,467.352847 L326.994681,472.782369 C326.808174,473.295264 326.320726,473.636685 325.774974,473.636685 L318.276315,473.636685 C317.989745,473.636685 317.737104,473.448713 317.654759,473.174229 L316.097344,467.982844 C315.994361,467.639568 316.189157,467.277804 316.532433,467.174821 C316.592925,467.156674 316.655743,467.147454 316.718899,467.147454 L325.357324,467.147454 C325.715715,467.147454 326.006248,467.437987 326.006248,467.796377 C326.006248,467.859533 325.997028,467.922351 325.97888,467.982844 L325.033047,471.135573 C324.945019,471.429 325.111527,471.738229 325.404953,471.826257 C325.686557,471.910738 325.985161,471.760825 326.085634,471.484523 Z M319.415804,477.530224 C318.519828,477.530224 317.793496,476.803892 317.793496,475.907916 C317.793496,475.011941 318.519828,474.285609 319.415804,474.285609 C320.31178,474.285609 321.038112,475.011941 321.038112,475.907916 C321.038112,476.803892 320.31178,477.530224 319.415804,477.530224 Z M324.607189,477.530224 C323.711213,477.530224 322.984881,476.803892 322.984881,475.907916 C322.984881,475.011941 323.711213,474.285609 324.607189,474.285609 C325.503165,474.285609 326.229497,475.011941 326.229497,475.907916 C326.229497,476.803892 325.503165,477.530224 324.607189,477.530224 Z" id="Combined-Shape" fill="#60666A" transform="translate(324.069805, 471.365454) rotate(-15.000000) translate(-324.069805, -471.365454) "></path>
        </g>
    </g>
</svg>