<?xml version="1.0" encoding="UTF-8"?>
<svg width="59px" height="33px" viewBox="0 0 59 33" version="1.1" xmlns="http://www.w3.org/2000/svg" xmlns:xlink="http://www.w3.org/1999/xlink">
    <!-- Generator: Sketch 52.4 (67378) - http://www.bohemiancoding.com/sketch -->
    <title>product-cart-button</title>
    <desc>Created with Sketch.</desc>
    <g id="Page-1" stroke="none" stroke-width="1" fill="none" fill-rule="evenodd">
        <g id="Icons" transform="translate(-298.000000, -418.000000)">
            <path d="M308,428 L319,428 L319,440 L308,440 C306.895431,440 306,439.104569 306,438 L306,430 C306,428.895431 306.895431,428 308,428 Z" id="Rectangle-3" fill="#4E555A"></path>
            <path d="M320,428 L347,428 C348.104569,428 349,428.895431 349,430 L349,438 C349,439.104569 348.104569,440 347,440 L320,440 L320,428 Z" id="Rectangle-3" fill="#4E555A"></path>
            <rect id="Rectangle" fill="#60666A" x="325" y="433" width="19" height="2" rx="1"></rect>
            <path d="M314.007914,434.057943 L314.9951,431.415741 C315.088354,431.166148 315.332078,431 315.604954,431 L316.675538,431 C316.854734,431 317,431.141384 317,431.315789 C317,431.490195 316.854734,431.631579 316.675538,431.631579 L316.059477,431.631579 C315.786601,431.631579 315.542877,431.797727 315.449624,432.04732 L314.462438,434.689522 C314.369184,434.939115 314.12546,435.105263 313.852584,435.105263 L310.103255,435.105263 C309.95997,435.105263 309.83365,435.013789 309.792477,434.880215 L309.013769,432.353899 C308.962278,432.186849 309.059676,432.010802 309.231314,431.960686 C309.26156,431.951855 309.292969,431.947368 309.324547,431.947368 L313.64376,431.947368 C313.822955,431.947368 313.968221,432.088752 313.968221,432.263158 C313.968221,432.293892 313.963611,432.324461 313.954537,432.353899 L313.484263,433.879585 C313.439246,434.02563 313.521146,434.180516 313.667191,434.225533 C313.807224,434.268696 313.956628,434.19521 314.007914,434.057943 Z M310.672999,437 C310.225011,437 309.861845,436.646541 309.861845,436.210526 C309.861845,435.774512 310.225011,435.421053 310.672999,435.421053 C311.120987,435.421053 311.484153,435.774512 311.484153,436.210526 C311.484153,436.646541 311.120987,437 310.672999,437 Z M313.268692,437 C312.820704,437 312.457538,436.646541 312.457538,436.210526 C312.457538,435.774512 312.820704,435.421053 313.268692,435.421053 C313.71668,435.421053 314.079846,435.774512 314.079846,436.210526 C314.079846,436.646541 313.71668,437 313.268692,437 Z" id="Combined-Shape" fill="#60666A"></path>
        </g>
    </g>
</svg>