<?xml version="1.0" encoding="UTF-8"?>
<svg width="59px" height="33px" viewBox="0 0 59 33" version="1.1" xmlns="http://www.w3.org/2000/svg" xmlns:xlink="http://www.w3.org/1999/xlink">
    <!-- Generator: Sketch 52.4 (67378) - http://www.bohemiancoding.com/sketch -->
    <title>product-title-blue</title>
    <desc>Created with Sketch.</desc>
    <g id="Page-1" stroke="none" stroke-width="1" fill="none" fill-rule="evenodd">
        <g id="Icons" transform="translate(-365.000000, -344.000000)">
            <path d="M399.015829,354.115886 L400.9902,348.831482 C401.176708,348.332296 401.664155,348 402.209908,348 L404.351077,348 C404.709467,348 405,348.282768 405,348.631579 C405,348.98039 404.709467,349.263158 404.351077,349.263158 L403.118955,349.263158 C402.573202,349.263158 402.085754,349.595454 401.899247,350.09464 L399.924876,355.379044 C399.738368,355.87823 399.250921,356.210526 398.705168,356.210526 L391.20651,356.210526 C390.91994,356.210526 390.667299,356.027578 390.584954,355.76043 L389.027538,350.707799 C388.924556,350.373698 389.119352,350.021603 389.462627,349.921373 C389.52312,349.90371 389.585938,349.894737 389.649094,349.894737 L398.287519,349.894737 C398.645909,349.894737 398.936442,350.177504 398.936442,350.526316 C398.936442,350.587784 398.927223,350.648923 398.909075,350.707799 L397.968476,353.759153 C397.878439,354.051257 398.042246,354.361044 398.33435,354.451081 C398.614429,354.537413 398.913252,354.390432 399.015829,354.115886 Z M392.345999,360 C391.450023,360 390.723691,359.293081 390.723691,358.421053 C390.723691,357.549024 391.450023,356.842105 392.345999,356.842105 C393.241975,356.842105 393.968307,357.549024 393.968307,358.421053 C393.968307,359.293081 393.241975,360 392.345999,360 Z M397.537384,360 C396.641408,360 395.915076,359.293081 395.915076,358.421053 C395.915076,357.549024 396.641408,356.842105 397.537384,356.842105 C398.43336,356.842105 399.159692,357.549024 399.159692,358.421053 C399.159692,359.293081 398.43336,360 397.537384,360 Z" id="Combined-Shape" fill="#386689"></path>
            <rect id="Rectangle" fill="#577E9C" x="384" y="369" width="22" height="2" rx="1"></rect>
            <rect id="Rectangle" fill="#577E9C" x="376" y="364" width="38" height="2" rx="1"></rect>
        </g>
    </g>
</svg>