<?xml version="1.0" encoding="UTF-8"?>
<svg width="59px" height="33px" viewBox="0 0 59 33" version="1.1" xmlns="http://www.w3.org/2000/svg" xmlns:xlink="http://www.w3.org/1999/xlink">
    <!-- Generator: Sketch 52.4 (67378) - http://www.bohemiancoding.com/sketch -->
    <title>product-images-blue</title>
    <desc>Created with Sketch.</desc>
    <g id="Page-1" stroke="none" stroke-width="1" fill="none" fill-rule="evenodd">
        <g id="Icons" transform="translate(-428.000000, -381.000000)">
            <rect id="Rectangle-17" fill="#386689" x="438" y="385" width="25" height="25" rx="2"></rect>
            <path d="M453.015829,397.115886 L454.9902,391.831482 C455.176708,391.332296 455.664155,391 456.209908,391 L458.351077,391 C458.709467,391 459,391.282768 459,391.631579 C459,391.98039 458.709467,392.263158 458.351077,392.263158 L457.118955,392.263158 C456.573202,392.263158 456.085754,392.595454 455.899247,393.09464 L453.924876,398.379044 C453.738368,398.87823 453.250921,399.210526 452.705168,399.210526 L445.20651,399.210526 C444.91994,399.210526 444.667299,399.027578 444.584954,398.76043 L443.027538,393.707799 C442.924556,393.373698 443.119352,393.021603 443.462627,392.921373 C443.52312,392.90371 443.585938,392.894737 443.649094,392.894737 L452.287519,392.894737 C452.645909,392.894737 452.936442,393.177504 452.936442,393.526316 C452.936442,393.587784 452.927223,393.648923 452.909075,393.707799 L451.968476,396.759153 C451.878439,397.051257 452.042246,397.361044 452.33435,397.451081 C452.614429,397.537413 452.913252,397.390432 453.015829,397.115886 Z M446.345999,403 C445.450023,403 444.723691,402.293081 444.723691,401.421053 C444.723691,400.549024 445.450023,399.842105 446.345999,399.842105 C447.241975,399.842105 447.968307,400.549024 447.968307,401.421053 C447.968307,402.293081 447.241975,403 446.345999,403 Z M451.537384,403 C450.641408,403 449.915076,402.293081 449.915076,401.421053 C449.915076,400.549024 450.641408,399.842105 451.537384,399.842105 C452.43336,399.842105 453.159692,400.549024 453.159692,401.421053 C453.159692,402.293081 452.43336,403 451.537384,403 Z" id="Combined-Shape" fill="#577E9C"></path>
            <rect id="Rectangle-17" fill="#577E9C" x="464" y="385" width="13" height="12" rx="2"></rect>
            <path d="M472.007914,391.057943 L472.9951,388.415741 C473.088354,388.166148 473.332078,388 473.604954,388 L474.675538,388 C474.854734,388 475,388.141384 475,388.315789 C475,388.490195 474.854734,388.631579 474.675538,388.631579 L474.059477,388.631579 C473.786601,388.631579 473.542877,388.797727 473.449624,389.04732 L472.462438,391.689522 C472.369184,391.939115 472.12546,392.105263 471.852584,392.105263 L468.103255,392.105263 C467.95997,392.105263 467.83365,392.013789 467.792477,391.880215 L467.013769,389.353899 C466.962278,389.186849 467.059676,389.010802 467.231314,388.960686 C467.26156,388.951855 467.292969,388.947368 467.324547,388.947368 L471.64376,388.947368 C471.822955,388.947368 471.968221,389.088752 471.968221,389.263158 C471.968221,389.293892 471.963611,389.324461 471.954537,389.353899 L471.484263,390.879585 C471.439246,391.02563 471.521146,391.180516 471.667191,391.225533 C471.807224,391.268696 471.956628,391.19521 472.007914,391.057943 Z M468.672999,394 C468.225011,394 467.861845,393.646541 467.861845,393.210526 C467.861845,392.774512 468.225011,392.421053 468.672999,392.421053 C469.120987,392.421053 469.484153,392.774512 469.484153,393.210526 C469.484153,393.646541 469.120987,394 468.672999,394 Z M471.268692,394 C470.820704,394 470.457538,393.646541 470.457538,393.210526 C470.457538,392.774512 470.820704,392.421053 471.268692,392.421053 C471.71668,392.421053 472.079846,392.774512 472.079846,393.210526 C472.079846,393.646541 471.71668,394 471.268692,394 Z" id="Combined-Shape" fill="#386689"></path>
            <rect id="Rectangle-17" fill="#386689" x="464" y="398" width="13" height="12" rx="2"></rect>
            <path d="M472.007914,404.057943 L472.9951,401.415741 C473.088354,401.166148 473.332078,401 473.604954,401 L474.675538,401 C474.854734,401 475,401.141384 475,401.315789 C475,401.490195 474.854734,401.631579 474.675538,401.631579 L474.059477,401.631579 C473.786601,401.631579 473.542877,401.797727 473.449624,402.04732 L472.462438,404.689522 C472.369184,404.939115 472.12546,405.105263 471.852584,405.105263 L468.103255,405.105263 C467.95997,405.105263 467.83365,405.013789 467.792477,404.880215 L467.013769,402.353899 C466.962278,402.186849 467.059676,402.010802 467.231314,401.960686 C467.26156,401.951855 467.292969,401.947368 467.324547,401.947368 L471.64376,401.947368 C471.822955,401.947368 471.968221,402.088752 471.968221,402.263158 C471.968221,402.293892 471.963611,402.324461 471.954537,402.353899 L471.484263,403.879585 C471.439246,404.02563 471.521146,404.180516 471.667191,404.225533 C471.807224,404.268696 471.956628,404.19521 472.007914,404.057943 Z M468.672999,407 C468.225011,407 467.861845,406.646541 467.861845,406.210526 C467.861845,405.774512 468.225011,405.421053 468.672999,405.421053 C469.120987,405.421053 469.484153,405.774512 469.484153,406.210526 C469.484153,406.646541 469.120987,407 468.672999,407 Z M471.268692,407 C470.820704,407 470.457538,406.646541 470.457538,406.210526 C470.457538,405.774512 470.820704,405.421053 471.268692,405.421053 C471.71668,405.421053 472.079846,405.774512 472.079846,406.210526 C472.079846,406.646541 471.71668,407 471.268692,407 Z" id="Combined-Shape" fill="#577E9C"></path>
        </g>
    </g>
</svg>