<?xml version="1.0" encoding="UTF-8"?>
<svg width="59px" height="33px" viewBox="0 0 59 33" version="1.1" xmlns="http://www.w3.org/2000/svg" xmlns:xlink="http://www.w3.org/1999/xlink">
    <!-- Generator: Sketch 52.4 (67378) - http://www.bohemiancoding.com/sketch -->
    <title>product-upsells</title>
    <desc>Created with Sketch.</desc>
    <g id="Page-1" stroke="none" stroke-width="1" fill="none" fill-rule="evenodd">
        <g id="Icons" transform="translate(-235.000000, -529.000000)">
            <rect id="Rectangle" fill="#60666A" x="252" y="534" width="25" height="2" rx="1"></rect>
            <rect id="Rectangle" fill="#60666A" x="255" y="538" width="19" height="2" rx="1"></rect>
            <rect id="Rectangle-17" fill="#4E555A" x="241" y="544" width="13" height="12" rx="2"></rect>
            <rect id="Rectangle-17" fill="#4E555A" x="275" y="544" width="13" height="12" rx="2"></rect>
            <rect id="Rectangle-17" fill="#4E555A" x="258" y="544" width="13" height="12" rx="2"></rect>
            <path d="M266.007914,550.057943 L266.9951,547.415741 C267.088354,547.166148 267.332078,547 267.604954,547 L268.675538,547 C268.854734,547 269,547.141384 269,547.315789 C269,547.490195 268.854734,547.631579 268.675538,547.631579 L268.059477,547.631579 C267.786601,547.631579 267.542877,547.797727 267.449624,548.04732 L266.462438,550.689522 C266.369184,550.939115 266.12546,551.105263 265.852584,551.105263 L262.103255,551.105263 C261.95997,551.105263 261.83365,551.013789 261.792477,550.880215 L261.013769,548.353899 C260.962278,548.186849 261.059676,548.010802 261.231314,547.960686 C261.26156,547.951855 261.292969,547.947368 261.324547,547.947368 L265.64376,547.947368 C265.822955,547.947368 265.968221,548.088752 265.968221,548.263158 C265.968221,548.293892 265.963611,548.324461 265.954537,548.353899 L265.484263,549.879585 C265.439246,550.02563 265.521146,550.180516 265.667191,550.225533 C265.807224,550.268696 265.956628,550.19521 266.007914,550.057943 Z M262.672999,553 C262.225011,553 261.861845,552.646541 261.861845,552.210526 C261.861845,551.774512 262.225011,551.421053 262.672999,551.421053 C263.120987,551.421053 263.484153,551.774512 263.484153,552.210526 C263.484153,552.646541 263.120987,553 262.672999,553 Z M265.268692,553 C264.820704,553 264.457538,552.646541 264.457538,552.210526 C264.457538,551.774512 264.820704,551.421053 265.268692,551.421053 C265.71668,551.421053 266.079846,551.774512 266.079846,552.210526 C266.079846,552.646541 265.71668,553 265.268692,553 Z" id="Combined-Shape" fill="#60666A"></path>
            <path d="M283.007914,550.057943 L283.9951,547.415741 C284.088354,547.166148 284.332078,547 284.604954,547 L285.675538,547 C285.854734,547 286,547.141384 286,547.315789 C286,547.490195 285.854734,547.631579 285.675538,547.631579 L285.059477,547.631579 C284.786601,547.631579 284.542877,547.797727 284.449624,548.04732 L283.462438,550.689522 C283.369184,550.939115 283.12546,551.105263 282.852584,551.105263 L279.103255,551.105263 C278.95997,551.105263 278.83365,551.013789 278.792477,550.880215 L278.013769,548.353899 C277.962278,548.186849 278.059676,548.010802 278.231314,547.960686 C278.26156,547.951855 278.292969,547.947368 278.324547,547.947368 L282.64376,547.947368 C282.822955,547.947368 282.968221,548.088752 282.968221,548.263158 C282.968221,548.293892 282.963611,548.324461 282.954537,548.353899 L282.484263,549.879585 C282.439246,550.02563 282.521146,550.180516 282.667191,550.225533 C282.807224,550.268696 282.956628,550.19521 283.007914,550.057943 Z M279.672999,553 C279.225011,553 278.861845,552.646541 278.861845,552.210526 C278.861845,551.774512 279.225011,551.421053 279.672999,551.421053 C280.120987,551.421053 280.484153,551.774512 280.484153,552.210526 C280.484153,552.646541 280.120987,553 279.672999,553 Z M282.268692,553 C281.820704,553 281.457538,552.646541 281.457538,552.210526 C281.457538,551.774512 281.820704,551.421053 282.268692,551.421053 C282.71668,551.421053 283.079846,551.774512 283.079846,552.210526 C283.079846,552.646541 282.71668,553 282.268692,553 Z" id="Combined-Shape" fill="#60666A"></path>
            <path d="M249.007914,550.057943 L249.9951,547.415741 C250.088354,547.166148 250.332078,547 250.604954,547 L251.675538,547 C251.854734,547 252,547.141384 252,547.315789 C252,547.490195 251.854734,547.631579 251.675538,547.631579 L251.059477,547.631579 C250.786601,547.631579 250.542877,547.797727 250.449624,548.04732 L249.462438,550.689522 C249.369184,550.939115 249.12546,551.105263 248.852584,551.105263 L245.103255,551.105263 C244.95997,551.105263 244.83365,551.013789 244.792477,550.880215 L244.013769,548.353899 C243.962278,548.186849 244.059676,548.010802 244.231314,547.960686 C244.26156,547.951855 244.292969,547.947368 244.324547,547.947368 L248.64376,547.947368 C248.822955,547.947368 248.968221,548.088752 248.968221,548.263158 C248.968221,548.293892 248.963611,548.324461 248.954537,548.353899 L248.484263,549.879585 C248.439246,550.02563 248.521146,550.180516 248.667191,550.225533 C248.807224,550.268696 248.956628,550.19521 249.007914,550.057943 Z M245.672999,553 C245.225011,553 244.861845,552.646541 244.861845,552.210526 C244.861845,551.774512 245.225011,551.421053 245.672999,551.421053 C246.120987,551.421053 246.484153,551.774512 246.484153,552.210526 C246.484153,552.646541 246.120987,553 245.672999,553 Z M248.268692,553 C247.820704,553 247.457538,552.646541 247.457538,552.210526 C247.457538,551.774512 247.820704,551.421053 248.268692,551.421053 C248.71668,551.421053 249.079846,551.774512 249.079846,552.210526 C249.079846,552.646541 248.71668,553 248.268692,553 Z" id="Combined-Shape" fill="#60666A"></path>
        </g>
    </g>
</svg>